G04 #@! TF.GenerationSoftware,KiCad,Pcbnew,(5.1.12)-1*
G04 #@! TF.CreationDate,2021-12-05T18:21:47-06:00*
G04 #@! TF.ProjectId,PicoFightingBoard,5069636f-4669-4676-9874-696e67426f61,rev?*
G04 #@! TF.SameCoordinates,Original*
G04 #@! TF.FileFunction,Soldermask,Top*
G04 #@! TF.FilePolarity,Negative*
%FSLAX46Y46*%
G04 Gerber Fmt 4.6, Leading zero omitted, Abs format (unit mm)*
G04 Created by KiCad (PCBNEW (5.1.12)-1) date 2021-12-05 18:21:47*
%MOMM*%
%LPD*%
G01*
G04 APERTURE LIST*
%ADD10O,1.750000X1.200000*%
%ADD11C,2.400000*%
%ADD12R,2.400000X2.400000*%
%ADD13R,1.060000X0.650000*%
%ADD14C,3.500000*%
%ADD15R,1.700000X1.700000*%
%ADD16O,1.700000X1.700000*%
%ADD17O,1.200000X1.750000*%
%ADD18R,3.500000X1.700000*%
%ADD19R,1.700000X3.500000*%
G04 APERTURE END LIST*
G36*
G01*
X107985399Y-104403600D02*
X109235401Y-104403600D01*
G75*
G02*
X109485400Y-104653599I0J-249999D01*
G01*
X109485400Y-105353601D01*
G75*
G02*
X109235401Y-105603600I-249999J0D01*
G01*
X107985399Y-105603600D01*
G75*
G02*
X107735400Y-105353601I0J249999D01*
G01*
X107735400Y-104653599D01*
G75*
G02*
X107985399Y-104403600I249999J0D01*
G01*
G37*
D10*
X108610400Y-107003600D03*
X108610400Y-109003600D03*
X108610400Y-111003600D03*
D11*
X115540000Y-82550000D03*
X119040000Y-82550000D03*
X122540000Y-82550000D03*
X126040000Y-82550000D03*
X129540000Y-82550000D03*
X133320000Y-82550000D03*
X136820000Y-82550000D03*
X140320000Y-82550000D03*
X143820000Y-82550000D03*
X147320000Y-82550000D03*
X151100000Y-82550000D03*
X154600000Y-82550000D03*
X158100000Y-82550000D03*
X161600000Y-82550000D03*
X165100000Y-82550000D03*
X168880000Y-82550000D03*
X172380000Y-82550000D03*
X175880000Y-82550000D03*
X179380000Y-82550000D03*
D12*
X182880000Y-82550000D03*
D13*
X120276800Y-91272400D03*
X120276800Y-90322400D03*
X120276800Y-89372400D03*
X118076800Y-89372400D03*
X118076800Y-91272400D03*
D14*
X195326000Y-83185000D03*
X195326000Y-120015000D03*
X107696000Y-120142000D03*
X107569000Y-83185000D03*
D15*
X137160000Y-119380000D03*
D16*
X137160000Y-121920000D03*
X134620000Y-119380000D03*
X134620000Y-121920000D03*
X132080000Y-119380000D03*
X132080000Y-121920000D03*
X129540000Y-119380000D03*
X129540000Y-121920000D03*
X127000000Y-119380000D03*
X127000000Y-121920000D03*
X124460000Y-119380000D03*
X124460000Y-121920000D03*
X121920000Y-119380000D03*
X121920000Y-121920000D03*
X119380000Y-119380000D03*
X119380000Y-121920000D03*
X116840000Y-119380000D03*
X116840000Y-121920000D03*
X114300000Y-119380000D03*
X114300000Y-121920000D03*
G36*
G01*
X145704000Y-120767001D02*
X145704000Y-119516999D01*
G75*
G02*
X145953999Y-119267000I249999J0D01*
G01*
X146654001Y-119267000D01*
G75*
G02*
X146904000Y-119516999I0J-249999D01*
G01*
X146904000Y-120767001D01*
G75*
G02*
X146654001Y-121017000I-249999J0D01*
G01*
X145953999Y-121017000D01*
G75*
G02*
X145704000Y-120767001I0J249999D01*
G01*
G37*
D17*
X148304000Y-120142000D03*
X150304000Y-120142000D03*
X152304000Y-120142000D03*
X154304000Y-120142000D03*
G36*
G01*
X138614998Y-113510000D02*
X139515002Y-113510000D01*
G75*
G02*
X139765000Y-113759998I0J-249998D01*
G01*
X139765000Y-114285002D01*
G75*
G02*
X139515002Y-114535000I-249998J0D01*
G01*
X138614998Y-114535000D01*
G75*
G02*
X138365000Y-114285002I0J249998D01*
G01*
X138365000Y-113759998D01*
G75*
G02*
X138614998Y-113510000I249998J0D01*
G01*
G37*
G36*
G01*
X138614998Y-115335000D02*
X139515002Y-115335000D01*
G75*
G02*
X139765000Y-115584998I0J-249998D01*
G01*
X139765000Y-116110002D01*
G75*
G02*
X139515002Y-116360000I-249998J0D01*
G01*
X138614998Y-116360000D01*
G75*
G02*
X138365000Y-116110002I0J249998D01*
G01*
X138365000Y-115584998D01*
G75*
G02*
X138614998Y-115335000I249998J0D01*
G01*
G37*
G36*
G01*
X140646998Y-115335000D02*
X141547002Y-115335000D01*
G75*
G02*
X141797000Y-115584998I0J-249998D01*
G01*
X141797000Y-116110002D01*
G75*
G02*
X141547002Y-116360000I-249998J0D01*
G01*
X140646998Y-116360000D01*
G75*
G02*
X140397000Y-116110002I0J249998D01*
G01*
X140397000Y-115584998D01*
G75*
G02*
X140646998Y-115335000I249998J0D01*
G01*
G37*
G36*
G01*
X140646998Y-113510000D02*
X141547002Y-113510000D01*
G75*
G02*
X141797000Y-113759998I0J-249998D01*
G01*
X141797000Y-114285002D01*
G75*
G02*
X141547002Y-114535000I-249998J0D01*
G01*
X140646998Y-114535000D01*
G75*
G02*
X140397000Y-114285002I0J249998D01*
G01*
X140397000Y-113759998D01*
G75*
G02*
X140646998Y-113510000I249998J0D01*
G01*
G37*
G36*
G01*
X142678998Y-113510000D02*
X143579002Y-113510000D01*
G75*
G02*
X143829000Y-113759998I0J-249998D01*
G01*
X143829000Y-114285002D01*
G75*
G02*
X143579002Y-114535000I-249998J0D01*
G01*
X142678998Y-114535000D01*
G75*
G02*
X142429000Y-114285002I0J249998D01*
G01*
X142429000Y-113759998D01*
G75*
G02*
X142678998Y-113510000I249998J0D01*
G01*
G37*
G36*
G01*
X142678998Y-115335000D02*
X143579002Y-115335000D01*
G75*
G02*
X143829000Y-115584998I0J-249998D01*
G01*
X143829000Y-116110002D01*
G75*
G02*
X143579002Y-116360000I-249998J0D01*
G01*
X142678998Y-116360000D01*
G75*
G02*
X142429000Y-116110002I0J249998D01*
G01*
X142429000Y-115584998D01*
G75*
G02*
X142678998Y-115335000I249998J0D01*
G01*
G37*
G36*
G01*
X144710998Y-115335000D02*
X145611002Y-115335000D01*
G75*
G02*
X145861000Y-115584998I0J-249998D01*
G01*
X145861000Y-116110002D01*
G75*
G02*
X145611002Y-116360000I-249998J0D01*
G01*
X144710998Y-116360000D01*
G75*
G02*
X144461000Y-116110002I0J249998D01*
G01*
X144461000Y-115584998D01*
G75*
G02*
X144710998Y-115335000I249998J0D01*
G01*
G37*
G36*
G01*
X144710998Y-113510000D02*
X145611002Y-113510000D01*
G75*
G02*
X145861000Y-113759998I0J-249998D01*
G01*
X145861000Y-114285002D01*
G75*
G02*
X145611002Y-114535000I-249998J0D01*
G01*
X144710998Y-114535000D01*
G75*
G02*
X144461000Y-114285002I0J249998D01*
G01*
X144461000Y-113759998D01*
G75*
G02*
X144710998Y-113510000I249998J0D01*
G01*
G37*
D16*
X148820000Y-104140000D03*
D18*
X147920000Y-104140000D03*
D15*
X148820000Y-101600000D03*
D18*
X147920000Y-101600000D03*
D16*
X148820000Y-99060000D03*
D18*
X147920000Y-99060000D03*
D19*
X148590000Y-111390000D03*
X151130000Y-111390000D03*
X153670000Y-111390000D03*
X156210000Y-111390000D03*
X158750000Y-111390000D03*
X161290000Y-111390000D03*
X163830000Y-111390000D03*
X166370000Y-111390000D03*
X168910000Y-111390000D03*
X171450000Y-111390000D03*
X173990000Y-111390000D03*
X176530000Y-111390000D03*
X179070000Y-111390000D03*
X181610000Y-111390000D03*
X184150000Y-111390000D03*
X186690000Y-111390000D03*
X189230000Y-111390000D03*
X191770000Y-111390000D03*
X194310000Y-111390000D03*
X196850000Y-111390000D03*
X148590000Y-91810000D03*
X151130000Y-91810000D03*
X153670000Y-91810000D03*
X156210000Y-91810000D03*
X158750000Y-91810000D03*
X161290000Y-91810000D03*
X163830000Y-91810000D03*
X166370000Y-91810000D03*
X168910000Y-91810000D03*
X171450000Y-91810000D03*
X173990000Y-91810000D03*
X176530000Y-91810000D03*
X179070000Y-91810000D03*
X181610000Y-91810000D03*
X184150000Y-91810000D03*
X186690000Y-91810000D03*
X189230000Y-91810000D03*
X191770000Y-91810000D03*
X194310000Y-91810000D03*
X196850000Y-91810000D03*
D16*
X196850000Y-110490000D03*
X194310000Y-110490000D03*
D15*
X191770000Y-110490000D03*
D16*
X189230000Y-110490000D03*
X186690000Y-110490000D03*
X184150000Y-110490000D03*
X181610000Y-110490000D03*
D15*
X179070000Y-110490000D03*
D16*
X176530000Y-110490000D03*
X173990000Y-110490000D03*
X171450000Y-110490000D03*
X168910000Y-110490000D03*
D15*
X166370000Y-110490000D03*
D16*
X163830000Y-110490000D03*
X161290000Y-110490000D03*
X158750000Y-110490000D03*
X156210000Y-110490000D03*
D15*
X153670000Y-110490000D03*
D16*
X151130000Y-110490000D03*
X148590000Y-110490000D03*
X148590000Y-92710000D03*
X151130000Y-92710000D03*
D15*
X153670000Y-92710000D03*
D16*
X156210000Y-92710000D03*
X158750000Y-92710000D03*
X161290000Y-92710000D03*
X163830000Y-92710000D03*
D15*
X166370000Y-92710000D03*
D16*
X168910000Y-92710000D03*
X171450000Y-92710000D03*
X173990000Y-92710000D03*
X176530000Y-92710000D03*
D15*
X179070000Y-92710000D03*
D16*
X181610000Y-92710000D03*
X184150000Y-92710000D03*
X186690000Y-92710000D03*
X189230000Y-92710000D03*
D15*
X191770000Y-92710000D03*
D16*
X194310000Y-92710000D03*
X196850000Y-92710000D03*
G36*
G01*
X158658000Y-120717000D02*
X158658000Y-119567000D01*
G75*
G02*
X158958000Y-119267000I300000J0D01*
G01*
X159558000Y-119267000D01*
G75*
G02*
X159858000Y-119567000I0J-300000D01*
G01*
X159858000Y-120717000D01*
G75*
G02*
X159558000Y-121017000I-300000J0D01*
G01*
X158958000Y-121017000D01*
G75*
G02*
X158658000Y-120717000I0J300000D01*
G01*
G37*
D17*
X161258000Y-120142000D03*
X163258000Y-120142000D03*
X165258000Y-120142000D03*
G36*
G01*
X115782001Y-105800800D02*
X114481999Y-105800800D01*
G75*
G02*
X114232000Y-105550801I0J249999D01*
G01*
X114232000Y-104850799D01*
G75*
G02*
X114481999Y-104600800I249999J0D01*
G01*
X115782001Y-104600800D01*
G75*
G02*
X116032000Y-104850799I0J-249999D01*
G01*
X116032000Y-105550801D01*
G75*
G02*
X115782001Y-105800800I-249999J0D01*
G01*
G37*
G36*
G01*
X115782001Y-111400800D02*
X114481999Y-111400800D01*
G75*
G02*
X114232000Y-111150801I0J249999D01*
G01*
X114232000Y-110450799D01*
G75*
G02*
X114481999Y-110200800I249999J0D01*
G01*
X115782001Y-110200800D01*
G75*
G02*
X116032000Y-110450799I0J-249999D01*
G01*
X116032000Y-111150801D01*
G75*
G02*
X115782001Y-111400800I-249999J0D01*
G01*
G37*
G36*
G01*
X118282000Y-106800800D02*
X117032000Y-106800800D01*
G75*
G02*
X116882000Y-106650800I0J150000D01*
G01*
X116882000Y-106350800D01*
G75*
G02*
X117032000Y-106200800I150000J0D01*
G01*
X118282000Y-106200800D01*
G75*
G02*
X118432000Y-106350800I0J-150000D01*
G01*
X118432000Y-106650800D01*
G75*
G02*
X118282000Y-106800800I-150000J0D01*
G01*
G37*
G36*
G01*
X118282000Y-107800800D02*
X117032000Y-107800800D01*
G75*
G02*
X116882000Y-107650800I0J150000D01*
G01*
X116882000Y-107350800D01*
G75*
G02*
X117032000Y-107200800I150000J0D01*
G01*
X118282000Y-107200800D01*
G75*
G02*
X118432000Y-107350800I0J-150000D01*
G01*
X118432000Y-107650800D01*
G75*
G02*
X118282000Y-107800800I-150000J0D01*
G01*
G37*
G36*
G01*
X118282000Y-108800800D02*
X117032000Y-108800800D01*
G75*
G02*
X116882000Y-108650800I0J150000D01*
G01*
X116882000Y-108350800D01*
G75*
G02*
X117032000Y-108200800I150000J0D01*
G01*
X118282000Y-108200800D01*
G75*
G02*
X118432000Y-108350800I0J-150000D01*
G01*
X118432000Y-108650800D01*
G75*
G02*
X118282000Y-108800800I-150000J0D01*
G01*
G37*
G36*
G01*
X118282000Y-109800800D02*
X117032000Y-109800800D01*
G75*
G02*
X116882000Y-109650800I0J150000D01*
G01*
X116882000Y-109350800D01*
G75*
G02*
X117032000Y-109200800I150000J0D01*
G01*
X118282000Y-109200800D01*
G75*
G02*
X118432000Y-109350800I0J-150000D01*
G01*
X118432000Y-109650800D01*
G75*
G02*
X118282000Y-109800800I-150000J0D01*
G01*
G37*
G36*
G01*
X116944200Y-90583598D02*
X116944200Y-91483602D01*
G75*
G02*
X116694202Y-91733600I-249998J0D01*
G01*
X116169198Y-91733600D01*
G75*
G02*
X115919200Y-91483602I0J249998D01*
G01*
X115919200Y-90583598D01*
G75*
G02*
X116169198Y-90333600I249998J0D01*
G01*
X116694202Y-90333600D01*
G75*
G02*
X116944200Y-90583598I0J-249998D01*
G01*
G37*
G36*
G01*
X115119200Y-90583598D02*
X115119200Y-91483602D01*
G75*
G02*
X114869202Y-91733600I-249998J0D01*
G01*
X114344198Y-91733600D01*
G75*
G02*
X114094200Y-91483602I0J249998D01*
G01*
X114094200Y-90583598D01*
G75*
G02*
X114344198Y-90333600I249998J0D01*
G01*
X114869202Y-90333600D01*
G75*
G02*
X115119200Y-90583598I0J-249998D01*
G01*
G37*
D15*
X184277000Y-120142000D03*
D16*
X186817000Y-120142000D03*
G36*
G01*
X169612000Y-120717000D02*
X169612000Y-119567000D01*
G75*
G02*
X169912000Y-119267000I300000J0D01*
G01*
X170512000Y-119267000D01*
G75*
G02*
X170812000Y-119567000I0J-300000D01*
G01*
X170812000Y-120717000D01*
G75*
G02*
X170512000Y-121017000I-300000J0D01*
G01*
X169912000Y-121017000D01*
G75*
G02*
X169612000Y-120717000I0J300000D01*
G01*
G37*
D17*
X172212000Y-120142000D03*
X174212000Y-120142000D03*
X176212000Y-120142000D03*
G36*
G01*
X107959999Y-90382800D02*
X109210001Y-90382800D01*
G75*
G02*
X109460000Y-90632799I0J-249999D01*
G01*
X109460000Y-91332801D01*
G75*
G02*
X109210001Y-91582800I-249999J0D01*
G01*
X107959999Y-91582800D01*
G75*
G02*
X107710000Y-91332801I0J249999D01*
G01*
X107710000Y-90632799D01*
G75*
G02*
X107959999Y-90382800I249999J0D01*
G01*
G37*
D10*
X108585000Y-92982800D03*
X108585000Y-94982800D03*
X108585000Y-96982800D03*
G36*
G01*
X144507500Y-103400000D02*
X143257500Y-103400000D01*
G75*
G02*
X143107500Y-103250000I0J150000D01*
G01*
X143107500Y-102950000D01*
G75*
G02*
X143257500Y-102800000I150000J0D01*
G01*
X144507500Y-102800000D01*
G75*
G02*
X144657500Y-102950000I0J-150000D01*
G01*
X144657500Y-103250000D01*
G75*
G02*
X144507500Y-103400000I-150000J0D01*
G01*
G37*
G36*
G01*
X144507500Y-102400000D02*
X143257500Y-102400000D01*
G75*
G02*
X143107500Y-102250000I0J150000D01*
G01*
X143107500Y-101950000D01*
G75*
G02*
X143257500Y-101800000I150000J0D01*
G01*
X144507500Y-101800000D01*
G75*
G02*
X144657500Y-101950000I0J-150000D01*
G01*
X144657500Y-102250000D01*
G75*
G02*
X144507500Y-102400000I-150000J0D01*
G01*
G37*
G36*
G01*
X144507500Y-101400000D02*
X143257500Y-101400000D01*
G75*
G02*
X143107500Y-101250000I0J150000D01*
G01*
X143107500Y-100950000D01*
G75*
G02*
X143257500Y-100800000I150000J0D01*
G01*
X144507500Y-100800000D01*
G75*
G02*
X144657500Y-100950000I0J-150000D01*
G01*
X144657500Y-101250000D01*
G75*
G02*
X144507500Y-101400000I-150000J0D01*
G01*
G37*
G36*
G01*
X144507500Y-100400000D02*
X143257500Y-100400000D01*
G75*
G02*
X143107500Y-100250000I0J150000D01*
G01*
X143107500Y-99950000D01*
G75*
G02*
X143257500Y-99800000I150000J0D01*
G01*
X144507500Y-99800000D01*
G75*
G02*
X144657500Y-99950000I0J-150000D01*
G01*
X144657500Y-100250000D01*
G75*
G02*
X144507500Y-100400000I-150000J0D01*
G01*
G37*
G36*
G01*
X142007501Y-105000000D02*
X140707499Y-105000000D01*
G75*
G02*
X140457500Y-104750001I0J249999D01*
G01*
X140457500Y-104049999D01*
G75*
G02*
X140707499Y-103800000I249999J0D01*
G01*
X142007501Y-103800000D01*
G75*
G02*
X142257500Y-104049999I0J-249999D01*
G01*
X142257500Y-104750001D01*
G75*
G02*
X142007501Y-105000000I-249999J0D01*
G01*
G37*
G36*
G01*
X142007501Y-99400000D02*
X140707499Y-99400000D01*
G75*
G02*
X140457500Y-99150001I0J249999D01*
G01*
X140457500Y-98449999D01*
G75*
G02*
X140707499Y-98200000I249999J0D01*
G01*
X142007501Y-98200000D01*
G75*
G02*
X142257500Y-98449999I0J-249999D01*
G01*
X142257500Y-99150001D01*
G75*
G02*
X142007501Y-99400000I-249999J0D01*
G01*
G37*
G36*
G01*
X114069200Y-93489800D02*
X114069200Y-92539800D01*
G75*
G02*
X114319200Y-92289800I250000J0D01*
G01*
X114819200Y-92289800D01*
G75*
G02*
X115069200Y-92539800I0J-250000D01*
G01*
X115069200Y-93489800D01*
G75*
G02*
X114819200Y-93739800I-250000J0D01*
G01*
X114319200Y-93739800D01*
G75*
G02*
X114069200Y-93489800I0J250000D01*
G01*
G37*
G36*
G01*
X115969200Y-93489800D02*
X115969200Y-92539800D01*
G75*
G02*
X116219200Y-92289800I250000J0D01*
G01*
X116719200Y-92289800D01*
G75*
G02*
X116969200Y-92539800I0J-250000D01*
G01*
X116969200Y-93489800D01*
G75*
G02*
X116719200Y-93739800I-250000J0D01*
G01*
X116219200Y-93739800D01*
G75*
G02*
X115969200Y-93489800I0J250000D01*
G01*
G37*
G36*
G01*
X112616401Y-114357200D02*
X111716399Y-114357200D01*
G75*
G02*
X111466400Y-114107201I0J249999D01*
G01*
X111466400Y-113582199D01*
G75*
G02*
X111716399Y-113332200I249999J0D01*
G01*
X112616401Y-113332200D01*
G75*
G02*
X112866400Y-113582199I0J-249999D01*
G01*
X112866400Y-114107201D01*
G75*
G02*
X112616401Y-114357200I-249999J0D01*
G01*
G37*
G36*
G01*
X112616401Y-116182200D02*
X111716399Y-116182200D01*
G75*
G02*
X111466400Y-115932201I0J249999D01*
G01*
X111466400Y-115407199D01*
G75*
G02*
X111716399Y-115157200I249999J0D01*
G01*
X112616401Y-115157200D01*
G75*
G02*
X112866400Y-115407199I0J-249999D01*
G01*
X112866400Y-115932201D01*
G75*
G02*
X112616401Y-116182200I-249999J0D01*
G01*
G37*
G36*
G01*
X116020001Y-114357200D02*
X115119999Y-114357200D01*
G75*
G02*
X114870000Y-114107201I0J249999D01*
G01*
X114870000Y-113582199D01*
G75*
G02*
X115119999Y-113332200I249999J0D01*
G01*
X116020001Y-113332200D01*
G75*
G02*
X116270000Y-113582199I0J-249999D01*
G01*
X116270000Y-114107201D01*
G75*
G02*
X116020001Y-114357200I-249999J0D01*
G01*
G37*
G36*
G01*
X116020001Y-116182200D02*
X115119999Y-116182200D01*
G75*
G02*
X114870000Y-115932201I0J249999D01*
G01*
X114870000Y-115407199D01*
G75*
G02*
X115119999Y-115157200I249999J0D01*
G01*
X116020001Y-115157200D01*
G75*
G02*
X116270000Y-115407199I0J-249999D01*
G01*
X116270000Y-115932201D01*
G75*
G02*
X116020001Y-116182200I-249999J0D01*
G01*
G37*
M02*
