M48
INCH,TZ
T1C0.0157
T2C0.0295
T3C0.0394
T4C0.0402
T5C0.0472
%
G90
G05
T1
X45480Y-45540
T2
X42750Y-35820
X42750Y-36607
X42750Y-37395
X42750Y-38182
X42760Y-41340
X42760Y-42127
X42760Y-42915
X42760Y-43702
X57600Y-47300
X58387Y-47300
X59175Y-47300
X59962Y-47300
X60750Y-47300
X62700Y-47300
X63487Y-47300
X64275Y-47300
X65062Y-47300
X67013Y-47300
X67800Y-47300
X68587Y-47300
X69375Y-47300
T3
X45000Y-47000
X45000Y-48000
X46000Y-47000
X46000Y-48000
X47000Y-47000
X47000Y-48000
X48000Y-47000
X48000Y-48000
X49000Y-47000
X49000Y-48000
X50000Y-47000
X50000Y-48000
X51000Y-47000
X51000Y-48000
X52000Y-47000
X52000Y-48000
X53000Y-47000
X53000Y-48000
X54000Y-47000
X54000Y-48000
X72550Y-47300
X73550Y-47300
T4
X58500Y-36500
X58500Y-43500
X58591Y-39000
X58591Y-40000
X58591Y-41000
X59500Y-36500
X59500Y-43500
X60500Y-36500
X60500Y-43500
X61500Y-36500
X61500Y-43500
X62500Y-36500
X62500Y-43500
X63500Y-36500
X63500Y-43500
X64500Y-36500
X64500Y-43500
X65500Y-36500
X65500Y-43500
X66500Y-36500
X66500Y-43500
X67500Y-36500
X67500Y-43500
X68500Y-36500
X68500Y-43500
X69500Y-36500
X69500Y-43500
X70500Y-36500
X70500Y-43500
X71500Y-36500
X71500Y-43500
X72500Y-36500
X72500Y-43500
X73500Y-36500
X73500Y-43500
X74500Y-36500
X74500Y-43500
X75500Y-36500
X75500Y-43500
X76500Y-36500
X76500Y-43500
X77500Y-36500
X77500Y-43500
T5
X45488Y-32500
X46866Y-32500
X48244Y-32500
X49622Y-32500
X51000Y-32500
X52488Y-32500
X53866Y-32500
X55244Y-32500
X56622Y-32500
X58000Y-32500
X59488Y-32500
X60866Y-32500
X62244Y-32500
X63622Y-32500
X65000Y-32500
X66488Y-32500
X67866Y-32500
X69244Y-32500
X70622Y-32500
X72000Y-32500
T0
M30
