%FSLAX45Y45*%
G04 Gerber Fmt 4.5, Leading zero omitted, Abs format (unit mm)*
G04 Created by KiCad (PCBNEW (5.1.12)-1) date 2021-12-31 11:23:11*
%MOMM*%
%LPD*%
G01*
G04 APERTURE LIST*
%TA.AperFunction,Profile*%
%ADD10C,0.050000*%
%TD*%
%ADD11C,0.200000*%
%ADD12C,0.300000*%
G04 APERTURE END LIST*
D10*
X19545300Y-12446000D02*
X10744200Y-12446000D01*
X19951700Y-8356600D02*
X19951700Y-12039600D01*
X10731500Y-7924800D02*
X19570700Y-7924800D01*
X10337800Y-12039600D02*
X10337800Y-8343900D01*
X10337800Y-12039600D02*
G75*
G03*
X10744200Y-12446000I406400J0D01*
G01*
X19545300Y-12446000D02*
G75*
G03*
X19951700Y-12039600I0J406400D01*
G01*
X19951700Y-8356600D02*
G75*
G03*
X19570700Y-7924800I-406400J25400D01*
G01*
X10731500Y-7924800D02*
G75*
G03*
X10337800Y-8343900I12700J-406400D01*
G01*
D11*
X10565000Y-8145000D02*
X10915000Y-8495000D01*
X10915000Y-8145000D02*
X10565000Y-8495000D01*
X10565000Y-11875000D02*
X10915000Y-12225000D01*
X10915000Y-11875000D02*
X10565000Y-12225000D01*
X19375000Y-8145000D02*
X19725000Y-8495000D01*
X19725000Y-8145000D02*
X19375000Y-8495000D01*
X19375000Y-11875000D02*
X19725000Y-12225000D01*
X19725000Y-11875000D02*
X19375000Y-12225000D01*
D12*
X10621530Y-12914214D02*
X10621530Y-12614214D01*
X10692959Y-12614214D01*
X10735816Y-12628500D01*
X10764387Y-12657071D01*
X10778673Y-12685643D01*
X10792959Y-12742786D01*
X10792959Y-12785643D01*
X10778673Y-12842786D01*
X10764387Y-12871357D01*
X10735816Y-12899929D01*
X10692959Y-12914214D01*
X10621530Y-12914214D01*
X10921530Y-12914214D02*
X10921530Y-12714214D01*
X10921530Y-12771357D02*
X10935816Y-12742786D01*
X10950102Y-12728500D01*
X10978673Y-12714214D01*
X11007244Y-12714214D01*
X11107244Y-12914214D02*
X11107244Y-12714214D01*
X11107244Y-12614214D02*
X11092959Y-12628500D01*
X11107244Y-12642786D01*
X11121530Y-12628500D01*
X11107244Y-12614214D01*
X11107244Y-12642786D01*
X11292959Y-12914214D02*
X11264387Y-12899929D01*
X11250101Y-12871357D01*
X11250101Y-12614214D01*
X11450101Y-12914214D02*
X11421530Y-12899929D01*
X11407244Y-12871357D01*
X11407244Y-12614214D01*
X11792959Y-12914214D02*
X11792959Y-12614214D01*
X11892959Y-12828500D01*
X11992959Y-12614214D01*
X11992959Y-12914214D01*
X12264387Y-12914214D02*
X12264387Y-12757071D01*
X12250101Y-12728500D01*
X12221530Y-12714214D01*
X12164387Y-12714214D01*
X12135816Y-12728500D01*
X12264387Y-12899929D02*
X12235816Y-12914214D01*
X12164387Y-12914214D01*
X12135816Y-12899929D01*
X12121530Y-12871357D01*
X12121530Y-12842786D01*
X12135816Y-12814214D01*
X12164387Y-12799929D01*
X12235816Y-12799929D01*
X12264387Y-12785643D01*
X12407244Y-12714214D02*
X12407244Y-13014214D01*
X12407244Y-12728500D02*
X12435816Y-12714214D01*
X12492959Y-12714214D01*
X12521530Y-12728500D01*
X12535816Y-12742786D01*
X12550101Y-12771357D01*
X12550101Y-12857071D01*
X12535816Y-12885643D01*
X12521530Y-12899929D01*
X12492959Y-12914214D01*
X12435816Y-12914214D01*
X12407244Y-12899929D01*
X12678673Y-12885643D02*
X12692959Y-12899929D01*
X12678673Y-12914214D01*
X12664387Y-12899929D01*
X12678673Y-12885643D01*
X12678673Y-12914214D01*
X12678673Y-12728500D02*
X12692959Y-12742786D01*
X12678673Y-12757071D01*
X12664387Y-12742786D01*
X12678673Y-12728500D01*
X12678673Y-12757071D01*
X9985102Y-13233500D02*
X10335102Y-13583500D01*
X10335102Y-13233500D02*
X9985102Y-13583500D01*
X10592959Y-13244214D02*
X10778673Y-13244214D01*
X10678673Y-13358500D01*
X10721530Y-13358500D01*
X10750102Y-13372786D01*
X10764387Y-13387071D01*
X10778673Y-13415643D01*
X10778673Y-13487071D01*
X10764387Y-13515643D01*
X10750102Y-13529929D01*
X10721530Y-13544214D01*
X10635816Y-13544214D01*
X10607244Y-13529929D01*
X10592959Y-13515643D01*
X10907244Y-13515643D02*
X10921530Y-13529929D01*
X10907244Y-13544214D01*
X10892959Y-13529929D01*
X10907244Y-13515643D01*
X10907244Y-13544214D01*
X11192959Y-13244214D02*
X11050102Y-13244214D01*
X11035816Y-13387071D01*
X11050102Y-13372786D01*
X11078673Y-13358500D01*
X11150102Y-13358500D01*
X11178673Y-13372786D01*
X11192959Y-13387071D01*
X11207244Y-13415643D01*
X11207244Y-13487071D01*
X11192959Y-13515643D01*
X11178673Y-13529929D01*
X11150102Y-13544214D01*
X11078673Y-13544214D01*
X11050102Y-13529929D01*
X11035816Y-13515643D01*
X11392959Y-13244214D02*
X11421530Y-13244214D01*
X11450101Y-13258500D01*
X11464387Y-13272786D01*
X11478673Y-13301357D01*
X11492959Y-13358500D01*
X11492959Y-13429929D01*
X11478673Y-13487071D01*
X11464387Y-13515643D01*
X11450101Y-13529929D01*
X11421530Y-13544214D01*
X11392959Y-13544214D01*
X11364387Y-13529929D01*
X11350101Y-13515643D01*
X11335816Y-13487071D01*
X11321530Y-13429929D01*
X11321530Y-13358500D01*
X11335816Y-13301357D01*
X11350101Y-13272786D01*
X11364387Y-13258500D01*
X11392959Y-13244214D01*
X11678673Y-13244214D02*
X11707244Y-13244214D01*
X11735816Y-13258500D01*
X11750101Y-13272786D01*
X11764387Y-13301357D01*
X11778673Y-13358500D01*
X11778673Y-13429929D01*
X11764387Y-13487071D01*
X11750101Y-13515643D01*
X11735816Y-13529929D01*
X11707244Y-13544214D01*
X11678673Y-13544214D01*
X11650101Y-13529929D01*
X11635816Y-13515643D01*
X11621530Y-13487071D01*
X11607244Y-13429929D01*
X11607244Y-13358500D01*
X11621530Y-13301357D01*
X11635816Y-13272786D01*
X11650101Y-13258500D01*
X11678673Y-13244214D01*
X11907244Y-13544214D02*
X11907244Y-13344214D01*
X11907244Y-13372786D02*
X11921530Y-13358500D01*
X11950101Y-13344214D01*
X11992959Y-13344214D01*
X12021530Y-13358500D01*
X12035816Y-13387071D01*
X12035816Y-13544214D01*
X12035816Y-13387071D02*
X12050101Y-13358500D01*
X12078673Y-13344214D01*
X12121530Y-13344214D01*
X12150101Y-13358500D01*
X12164387Y-13387071D01*
X12164387Y-13544214D01*
X12307244Y-13544214D02*
X12307244Y-13344214D01*
X12307244Y-13372786D02*
X12321530Y-13358500D01*
X12350101Y-13344214D01*
X12392959Y-13344214D01*
X12421530Y-13358500D01*
X12435816Y-13387071D01*
X12435816Y-13544214D01*
X12435816Y-13387071D02*
X12450101Y-13358500D01*
X12478673Y-13344214D01*
X12521530Y-13344214D01*
X12550101Y-13358500D01*
X12564387Y-13387071D01*
X12564387Y-13544214D01*
X13150101Y-13229929D02*
X12892959Y-13615643D01*
X13535816Y-13244214D02*
X13564387Y-13244214D01*
X13592959Y-13258500D01*
X13607244Y-13272786D01*
X13621530Y-13301357D01*
X13635816Y-13358500D01*
X13635816Y-13429929D01*
X13621530Y-13487071D01*
X13607244Y-13515643D01*
X13592959Y-13529929D01*
X13564387Y-13544214D01*
X13535816Y-13544214D01*
X13507244Y-13529929D01*
X13492959Y-13515643D01*
X13478673Y-13487071D01*
X13464387Y-13429929D01*
X13464387Y-13358500D01*
X13478673Y-13301357D01*
X13492959Y-13272786D01*
X13507244Y-13258500D01*
X13535816Y-13244214D01*
X13764387Y-13515643D02*
X13778673Y-13529929D01*
X13764387Y-13544214D01*
X13750101Y-13529929D01*
X13764387Y-13515643D01*
X13764387Y-13544214D01*
X14064387Y-13544214D02*
X13892959Y-13544214D01*
X13978673Y-13544214D02*
X13978673Y-13244214D01*
X13950101Y-13287071D01*
X13921530Y-13315643D01*
X13892959Y-13329929D01*
X14164387Y-13244214D02*
X14350101Y-13244214D01*
X14250101Y-13358500D01*
X14292959Y-13358500D01*
X14321530Y-13372786D01*
X14335816Y-13387071D01*
X14350101Y-13415643D01*
X14350101Y-13487071D01*
X14335816Y-13515643D01*
X14321530Y-13529929D01*
X14292959Y-13544214D01*
X14207244Y-13544214D01*
X14178673Y-13529929D01*
X14164387Y-13515643D01*
X14450101Y-13244214D02*
X14650101Y-13244214D01*
X14521530Y-13544214D01*
X14807244Y-13372786D02*
X14778673Y-13358500D01*
X14764387Y-13344214D01*
X14750101Y-13315643D01*
X14750101Y-13301357D01*
X14764387Y-13272786D01*
X14778673Y-13258500D01*
X14807244Y-13244214D01*
X14864387Y-13244214D01*
X14892959Y-13258500D01*
X14907244Y-13272786D01*
X14921530Y-13301357D01*
X14921530Y-13315643D01*
X14907244Y-13344214D01*
X14892959Y-13358500D01*
X14864387Y-13372786D01*
X14807244Y-13372786D01*
X14778673Y-13387071D01*
X14764387Y-13401357D01*
X14750101Y-13429929D01*
X14750101Y-13487071D01*
X14764387Y-13515643D01*
X14778673Y-13529929D01*
X14807244Y-13544214D01*
X14864387Y-13544214D01*
X14892959Y-13529929D01*
X14907244Y-13515643D01*
X14921530Y-13487071D01*
X14921530Y-13429929D01*
X14907244Y-13401357D01*
X14892959Y-13387071D01*
X14864387Y-13372786D01*
X15035816Y-13244214D02*
X15035816Y-13301357D01*
X15150101Y-13244214D02*
X15150101Y-13301357D01*
X15592959Y-13658500D02*
X15578673Y-13644214D01*
X15550101Y-13601357D01*
X15535816Y-13572786D01*
X15521530Y-13529929D01*
X15507244Y-13458500D01*
X15507244Y-13401357D01*
X15521530Y-13329929D01*
X15535816Y-13287071D01*
X15550101Y-13258500D01*
X15578673Y-13215643D01*
X15592959Y-13201357D01*
X15835816Y-13344214D02*
X15835816Y-13544214D01*
X15764387Y-13229929D02*
X15692959Y-13444214D01*
X15878673Y-13444214D01*
X16221530Y-13544214D02*
X16221530Y-13244214D01*
X16350101Y-13544214D02*
X16350101Y-13387071D01*
X16335816Y-13358500D01*
X16307244Y-13344214D01*
X16264387Y-13344214D01*
X16235816Y-13358500D01*
X16221530Y-13372786D01*
X16535816Y-13544214D02*
X16507244Y-13529929D01*
X16492959Y-13515643D01*
X16478673Y-13487071D01*
X16478673Y-13401357D01*
X16492959Y-13372786D01*
X16507244Y-13358500D01*
X16535816Y-13344214D01*
X16578673Y-13344214D01*
X16607244Y-13358500D01*
X16621530Y-13372786D01*
X16635816Y-13401357D01*
X16635816Y-13487071D01*
X16621530Y-13515643D01*
X16607244Y-13529929D01*
X16578673Y-13544214D01*
X16535816Y-13544214D01*
X16807244Y-13544214D02*
X16778673Y-13529929D01*
X16764387Y-13501357D01*
X16764387Y-13244214D01*
X17035816Y-13529929D02*
X17007244Y-13544214D01*
X16950102Y-13544214D01*
X16921530Y-13529929D01*
X16907244Y-13501357D01*
X16907244Y-13387071D01*
X16921530Y-13358500D01*
X16950102Y-13344214D01*
X17007244Y-13344214D01*
X17035816Y-13358500D01*
X17050102Y-13387071D01*
X17050102Y-13415643D01*
X16907244Y-13444214D01*
X17164387Y-13529929D02*
X17192959Y-13544214D01*
X17250102Y-13544214D01*
X17278673Y-13529929D01*
X17292959Y-13501357D01*
X17292959Y-13487071D01*
X17278673Y-13458500D01*
X17250102Y-13444214D01*
X17207244Y-13444214D01*
X17178673Y-13429929D01*
X17164387Y-13401357D01*
X17164387Y-13387071D01*
X17178673Y-13358500D01*
X17207244Y-13344214D01*
X17250102Y-13344214D01*
X17278673Y-13358500D01*
X17392959Y-13658500D02*
X17407244Y-13644214D01*
X17435816Y-13601357D01*
X17450102Y-13572786D01*
X17464387Y-13529929D01*
X17478673Y-13458500D01*
X17478673Y-13401357D01*
X17464387Y-13329929D01*
X17450102Y-13287071D01*
X17435816Y-13258500D01*
X17407244Y-13215643D01*
X17392959Y-13201357D01*
X17935816Y-13658500D02*
X17921530Y-13644214D01*
X17892959Y-13601357D01*
X17878673Y-13572786D01*
X17864387Y-13529929D01*
X17850102Y-13458500D01*
X17850102Y-13401357D01*
X17864387Y-13329929D01*
X17878673Y-13287071D01*
X17892959Y-13258500D01*
X17921530Y-13215643D01*
X17935816Y-13201357D01*
X18050102Y-13344214D02*
X18050102Y-13544214D01*
X18050102Y-13372786D02*
X18064387Y-13358500D01*
X18092959Y-13344214D01*
X18135816Y-13344214D01*
X18164387Y-13358500D01*
X18178673Y-13387071D01*
X18178673Y-13544214D01*
X18364387Y-13544214D02*
X18335816Y-13529929D01*
X18321530Y-13515643D01*
X18307244Y-13487071D01*
X18307244Y-13401357D01*
X18321530Y-13372786D01*
X18335816Y-13358500D01*
X18364387Y-13344214D01*
X18407244Y-13344214D01*
X18435816Y-13358500D01*
X18450102Y-13372786D01*
X18464387Y-13401357D01*
X18464387Y-13487071D01*
X18450102Y-13515643D01*
X18435816Y-13529929D01*
X18407244Y-13544214D01*
X18364387Y-13544214D01*
X18550102Y-13344214D02*
X18664387Y-13344214D01*
X18592959Y-13244214D02*
X18592959Y-13501357D01*
X18607244Y-13529929D01*
X18635816Y-13544214D01*
X18664387Y-13544214D01*
X18992959Y-13344214D02*
X18992959Y-13644214D01*
X18992959Y-13358500D02*
X19021530Y-13344214D01*
X19078673Y-13344214D01*
X19107244Y-13358500D01*
X19121530Y-13372786D01*
X19135816Y-13401357D01*
X19135816Y-13487071D01*
X19121530Y-13515643D01*
X19107244Y-13529929D01*
X19078673Y-13544214D01*
X19021530Y-13544214D01*
X18992959Y-13529929D01*
X19307244Y-13544214D02*
X19278673Y-13529929D01*
X19264387Y-13501357D01*
X19264387Y-13244214D01*
X19550102Y-13544214D02*
X19550102Y-13387071D01*
X19535816Y-13358500D01*
X19507244Y-13344214D01*
X19450102Y-13344214D01*
X19421530Y-13358500D01*
X19550102Y-13529929D02*
X19521530Y-13544214D01*
X19450102Y-13544214D01*
X19421530Y-13529929D01*
X19407244Y-13501357D01*
X19407244Y-13472786D01*
X19421530Y-13444214D01*
X19450102Y-13429929D01*
X19521530Y-13429929D01*
X19550102Y-13415643D01*
X19650102Y-13344214D02*
X19764387Y-13344214D01*
X19692959Y-13244214D02*
X19692959Y-13501357D01*
X19707244Y-13529929D01*
X19735816Y-13544214D01*
X19764387Y-13544214D01*
X19978673Y-13529929D02*
X19950102Y-13544214D01*
X19892959Y-13544214D01*
X19864387Y-13529929D01*
X19850102Y-13501357D01*
X19850102Y-13387071D01*
X19864387Y-13358500D01*
X19892959Y-13344214D01*
X19950102Y-13344214D01*
X19978673Y-13358500D01*
X19992959Y-13387071D01*
X19992959Y-13415643D01*
X19850102Y-13444214D01*
X20250102Y-13544214D02*
X20250102Y-13244214D01*
X20250102Y-13529929D02*
X20221530Y-13544214D01*
X20164387Y-13544214D01*
X20135816Y-13529929D01*
X20121530Y-13515643D01*
X20107244Y-13487071D01*
X20107244Y-13401357D01*
X20121530Y-13372786D01*
X20135816Y-13358500D01*
X20164387Y-13344214D01*
X20221530Y-13344214D01*
X20250102Y-13358500D01*
X20364387Y-13658500D02*
X20378673Y-13644214D01*
X20407244Y-13601357D01*
X20421530Y-13572786D01*
X20435816Y-13529929D01*
X20450102Y-13458500D01*
X20450102Y-13401357D01*
X20435816Y-13329929D01*
X20421530Y-13287071D01*
X20407244Y-13258500D01*
X20378673Y-13215643D01*
X20364387Y-13201357D01*
M02*
