%FSLAX45Y45*%
G04 Gerber Fmt 4.5, Leading zero omitted, Abs format (unit mm)*
G04 Created by KiCad (PCBNEW (5.1.12)-1) date 2021-12-31 11:23:11*
%MOMM*%
%LPD*%
G01*
G04 APERTURE LIST*
%TA.AperFunction,Profile*%
%ADD10C,0.050000*%
%TD*%
%ADD11C,0.200000*%
%ADD12C,0.300000*%
G04 APERTURE END LIST*
D10*
X19545300Y-12446000D02*
X10744200Y-12446000D01*
X19951700Y-8356600D02*
X19951700Y-12039600D01*
X10731500Y-7924800D02*
X19570700Y-7924800D01*
X10337800Y-12039600D02*
X10337800Y-8343900D01*
X10337800Y-12039600D02*
G75*
G03*
X10744200Y-12446000I406400J0D01*
G01*
X19545300Y-12446000D02*
G75*
G03*
X19951700Y-12039600I0J406400D01*
G01*
X19951700Y-8356600D02*
G75*
G03*
X19570700Y-7924800I-406400J25400D01*
G01*
X10731500Y-7924800D02*
G75*
G03*
X10337800Y-8343900I12700J-406400D01*
G01*
D11*
X11232840Y-11547160D02*
X11272840Y-11587160D01*
X11272840Y-11547160D02*
X11232840Y-11587160D01*
X11531920Y-11547160D02*
X11571920Y-11587160D01*
X11571920Y-11547160D02*
X11531920Y-11587160D01*
X10896000Y-9098280D02*
G75*
G03*
X10896000Y-9098280I-37500J0D01*
G01*
X10896000Y-9298280D02*
G75*
G03*
X10896000Y-9298280I-37500J0D01*
G01*
X10896000Y-9498280D02*
G75*
G03*
X10896000Y-9498280I-37500J0D01*
G01*
X10896000Y-9698280D02*
G75*
G03*
X10896000Y-9698280I-37500J0D01*
G01*
X10898540Y-10500360D02*
G75*
G03*
X10898540Y-10500360I-37500J0D01*
G01*
X10898540Y-10700360D02*
G75*
G03*
X10898540Y-10700360I-37500J0D01*
G01*
X10898540Y-10900360D02*
G75*
G03*
X10898540Y-10900360I-37500J0D01*
G01*
X10898540Y-11100360D02*
G75*
G03*
X10898540Y-11100360I-37500J0D01*
G01*
X14667900Y-12014200D02*
G75*
G03*
X14667900Y-12014200I-37500J0D01*
G01*
X14867900Y-12014200D02*
G75*
G03*
X14867900Y-12014200I-37500J0D01*
G01*
X15067900Y-12014200D02*
G75*
G03*
X15067900Y-12014200I-37500J0D01*
G01*
X15267900Y-12014200D02*
G75*
G03*
X15267900Y-12014200I-37500J0D01*
G01*
X15467900Y-12014200D02*
G75*
G03*
X15467900Y-12014200I-37500J0D01*
G01*
X15963300Y-12014200D02*
G75*
G03*
X15963300Y-12014200I-37500J0D01*
G01*
X16163300Y-12014200D02*
G75*
G03*
X16163300Y-12014200I-37500J0D01*
G01*
X16363300Y-12014200D02*
G75*
G03*
X16363300Y-12014200I-37500J0D01*
G01*
X16563300Y-12014200D02*
G75*
G03*
X16563300Y-12014200I-37500J0D01*
G01*
X17058700Y-12014200D02*
G75*
G03*
X17058700Y-12014200I-37500J0D01*
G01*
X17258700Y-12014200D02*
G75*
G03*
X17258700Y-12014200I-37500J0D01*
G01*
X17458700Y-12014200D02*
G75*
G03*
X17458700Y-12014200I-37500J0D01*
G01*
X17658700Y-12014200D02*
G75*
G03*
X17658700Y-12014200I-37500J0D01*
G01*
X11430000Y-11888000D02*
X11430000Y-11988000D01*
X11380000Y-11938000D02*
X11480000Y-11938000D01*
X11430000Y-12142000D02*
X11430000Y-12242000D01*
X11380000Y-12192000D02*
X11480000Y-12192000D01*
X11684000Y-11888000D02*
X11684000Y-11988000D01*
X11634000Y-11938000D02*
X11734000Y-11938000D01*
X11684000Y-12142000D02*
X11684000Y-12242000D01*
X11634000Y-12192000D02*
X11734000Y-12192000D01*
X11938000Y-11888000D02*
X11938000Y-11988000D01*
X11888000Y-11938000D02*
X11988000Y-11938000D01*
X11938000Y-12142000D02*
X11938000Y-12242000D01*
X11888000Y-12192000D02*
X11988000Y-12192000D01*
X12192000Y-11888000D02*
X12192000Y-11988000D01*
X12142000Y-11938000D02*
X12242000Y-11938000D01*
X12192000Y-12142000D02*
X12192000Y-12242000D01*
X12142000Y-12192000D02*
X12242000Y-12192000D01*
X12446000Y-11888000D02*
X12446000Y-11988000D01*
X12396000Y-11938000D02*
X12496000Y-11938000D01*
X12446000Y-12142000D02*
X12446000Y-12242000D01*
X12396000Y-12192000D02*
X12496000Y-12192000D01*
X12700000Y-11888000D02*
X12700000Y-11988000D01*
X12650000Y-11938000D02*
X12750000Y-11938000D01*
X12700000Y-12142000D02*
X12700000Y-12242000D01*
X12650000Y-12192000D02*
X12750000Y-12192000D01*
X12954000Y-11888000D02*
X12954000Y-11988000D01*
X12904000Y-11938000D02*
X13004000Y-11938000D01*
X12954000Y-12142000D02*
X12954000Y-12242000D01*
X12904000Y-12192000D02*
X13004000Y-12192000D01*
X13208000Y-11888000D02*
X13208000Y-11988000D01*
X13158000Y-11938000D02*
X13258000Y-11938000D01*
X13208000Y-12142000D02*
X13208000Y-12242000D01*
X13158000Y-12192000D02*
X13258000Y-12192000D01*
X13462000Y-11888000D02*
X13462000Y-11988000D01*
X13412000Y-11938000D02*
X13512000Y-11938000D01*
X13462000Y-12142000D02*
X13462000Y-12242000D01*
X13412000Y-12192000D02*
X13512000Y-12192000D01*
X13716000Y-11888000D02*
X13716000Y-11988000D01*
X13666000Y-11938000D02*
X13766000Y-11938000D01*
X13716000Y-12142000D02*
X13716000Y-12242000D01*
X13666000Y-12192000D02*
X13766000Y-12192000D01*
X18427700Y-11964200D02*
X18427700Y-12064200D01*
X18377700Y-12014200D02*
X18477700Y-12014200D01*
X18681700Y-11964200D02*
X18681700Y-12064200D01*
X18631700Y-12014200D02*
X18731700Y-12014200D01*
X14895063Y-9307063D02*
X14895063Y-9234937D01*
X14822937Y-9234937D01*
X14822937Y-9307063D01*
X14895063Y-9307063D01*
X14895063Y-11085063D02*
X14895063Y-11012937D01*
X14822937Y-11012937D01*
X14822937Y-11085063D01*
X14895063Y-11085063D01*
X14918063Y-9942063D02*
X14918063Y-9869937D01*
X14845937Y-9869937D01*
X14845937Y-9942063D01*
X14918063Y-9942063D01*
X14918063Y-10196063D02*
X14918063Y-10123937D01*
X14845937Y-10123937D01*
X14845937Y-10196063D01*
X14918063Y-10196063D01*
X14918063Y-10450063D02*
X14918063Y-10377937D01*
X14845937Y-10377937D01*
X14845937Y-10450063D01*
X14918063Y-10450063D01*
X15149063Y-9307063D02*
X15149063Y-9234937D01*
X15076937Y-9234937D01*
X15076937Y-9307063D01*
X15149063Y-9307063D01*
X15149063Y-11085063D02*
X15149063Y-11012937D01*
X15076937Y-11012937D01*
X15076937Y-11085063D01*
X15149063Y-11085063D01*
X15403063Y-9307063D02*
X15403063Y-9234937D01*
X15330937Y-9234937D01*
X15330937Y-9307063D01*
X15403063Y-9307063D01*
X15403063Y-11085063D02*
X15403063Y-11012937D01*
X15330937Y-11012937D01*
X15330937Y-11085063D01*
X15403063Y-11085063D01*
X15657063Y-9307063D02*
X15657063Y-9234937D01*
X15584937Y-9234937D01*
X15584937Y-9307063D01*
X15657063Y-9307063D01*
X15657063Y-11085063D02*
X15657063Y-11012937D01*
X15584937Y-11012937D01*
X15584937Y-11085063D01*
X15657063Y-11085063D01*
X15911063Y-9307063D02*
X15911063Y-9234937D01*
X15838937Y-9234937D01*
X15838937Y-9307063D01*
X15911063Y-9307063D01*
X15911063Y-11085063D02*
X15911063Y-11012937D01*
X15838937Y-11012937D01*
X15838937Y-11085063D01*
X15911063Y-11085063D01*
X16165063Y-9307063D02*
X16165063Y-9234937D01*
X16092937Y-9234937D01*
X16092937Y-9307063D01*
X16165063Y-9307063D01*
X16165063Y-11085063D02*
X16165063Y-11012937D01*
X16092937Y-11012937D01*
X16092937Y-11085063D01*
X16165063Y-11085063D01*
X16419063Y-9307063D02*
X16419063Y-9234937D01*
X16346937Y-9234937D01*
X16346937Y-9307063D01*
X16419063Y-9307063D01*
X16419063Y-11085063D02*
X16419063Y-11012937D01*
X16346937Y-11012937D01*
X16346937Y-11085063D01*
X16419063Y-11085063D01*
X16673063Y-9307063D02*
X16673063Y-9234937D01*
X16600937Y-9234937D01*
X16600937Y-9307063D01*
X16673063Y-9307063D01*
X16673063Y-11085063D02*
X16673063Y-11012937D01*
X16600937Y-11012937D01*
X16600937Y-11085063D01*
X16673063Y-11085063D01*
X16927063Y-9307063D02*
X16927063Y-9234937D01*
X16854937Y-9234937D01*
X16854937Y-9307063D01*
X16927063Y-9307063D01*
X16927063Y-11085063D02*
X16927063Y-11012937D01*
X16854937Y-11012937D01*
X16854937Y-11085063D01*
X16927063Y-11085063D01*
X17181063Y-9307063D02*
X17181063Y-9234937D01*
X17108937Y-9234937D01*
X17108937Y-9307063D01*
X17181063Y-9307063D01*
X17181063Y-11085063D02*
X17181063Y-11012937D01*
X17108937Y-11012937D01*
X17108937Y-11085063D01*
X17181063Y-11085063D01*
X17435063Y-9307063D02*
X17435063Y-9234937D01*
X17362937Y-9234937D01*
X17362937Y-9307063D01*
X17435063Y-9307063D01*
X17435063Y-11085063D02*
X17435063Y-11012937D01*
X17362937Y-11012937D01*
X17362937Y-11085063D01*
X17435063Y-11085063D01*
X17689063Y-9307063D02*
X17689063Y-9234937D01*
X17616937Y-9234937D01*
X17616937Y-9307063D01*
X17689063Y-9307063D01*
X17689063Y-11085063D02*
X17689063Y-11012937D01*
X17616937Y-11012937D01*
X17616937Y-11085063D01*
X17689063Y-11085063D01*
X17943063Y-9307063D02*
X17943063Y-9234937D01*
X17870937Y-9234937D01*
X17870937Y-9307063D01*
X17943063Y-9307063D01*
X17943063Y-11085063D02*
X17943063Y-11012937D01*
X17870937Y-11012937D01*
X17870937Y-11085063D01*
X17943063Y-11085063D01*
X18197063Y-9307063D02*
X18197063Y-9234937D01*
X18124937Y-9234937D01*
X18124937Y-9307063D01*
X18197063Y-9307063D01*
X18197063Y-11085063D02*
X18197063Y-11012937D01*
X18124937Y-11012937D01*
X18124937Y-11085063D01*
X18197063Y-11085063D01*
X18451063Y-9307063D02*
X18451063Y-9234937D01*
X18378937Y-9234937D01*
X18378937Y-9307063D01*
X18451063Y-9307063D01*
X18451063Y-11085063D02*
X18451063Y-11012937D01*
X18378937Y-11012937D01*
X18378937Y-11085063D01*
X18451063Y-11085063D01*
X18705063Y-9307063D02*
X18705063Y-9234937D01*
X18632937Y-9234937D01*
X18632937Y-9307063D01*
X18705063Y-9307063D01*
X18705063Y-11085063D02*
X18705063Y-11012937D01*
X18632937Y-11012937D01*
X18632937Y-11085063D01*
X18705063Y-11085063D01*
X18959063Y-9307063D02*
X18959063Y-9234937D01*
X18886937Y-9234937D01*
X18886937Y-9307063D01*
X18959063Y-9307063D01*
X18959063Y-11085063D02*
X18959063Y-11012937D01*
X18886937Y-11012937D01*
X18886937Y-11085063D01*
X18959063Y-11085063D01*
X19213063Y-9307063D02*
X19213063Y-9234937D01*
X19140937Y-9234937D01*
X19140937Y-9307063D01*
X19213063Y-9307063D01*
X19213063Y-11085063D02*
X19213063Y-11012937D01*
X19140937Y-11012937D01*
X19140937Y-11085063D01*
X19213063Y-11085063D01*
X19467063Y-9307063D02*
X19467063Y-9234937D01*
X19394937Y-9234937D01*
X19394937Y-9307063D01*
X19467063Y-9307063D01*
X19467063Y-11085063D02*
X19467063Y-11012937D01*
X19394937Y-11012937D01*
X19394937Y-11085063D01*
X19467063Y-11085063D01*
X19721063Y-9307063D02*
X19721063Y-9234937D01*
X19648937Y-9234937D01*
X19648937Y-9307063D01*
X19721063Y-9307063D01*
X19721063Y-11085063D02*
X19721063Y-11012937D01*
X19648937Y-11012937D01*
X19648937Y-11085063D01*
X19721063Y-11085063D01*
X11554000Y-8315000D02*
X11614000Y-8255000D01*
X11554000Y-8195000D01*
X11494000Y-8255000D01*
X11554000Y-8315000D01*
X11904000Y-8315000D02*
X11964000Y-8255000D01*
X11904000Y-8195000D01*
X11844000Y-8255000D01*
X11904000Y-8315000D01*
X12254000Y-8315000D02*
X12314000Y-8255000D01*
X12254000Y-8195000D01*
X12194000Y-8255000D01*
X12254000Y-8315000D01*
X12604000Y-8315000D02*
X12664000Y-8255000D01*
X12604000Y-8195000D01*
X12544000Y-8255000D01*
X12604000Y-8315000D01*
X12954000Y-8315000D02*
X13014000Y-8255000D01*
X12954000Y-8195000D01*
X12894000Y-8255000D01*
X12954000Y-8315000D01*
X13332000Y-8315000D02*
X13392000Y-8255000D01*
X13332000Y-8195000D01*
X13272000Y-8255000D01*
X13332000Y-8315000D01*
X13682000Y-8315000D02*
X13742000Y-8255000D01*
X13682000Y-8195000D01*
X13622000Y-8255000D01*
X13682000Y-8315000D01*
X14032000Y-8315000D02*
X14092000Y-8255000D01*
X14032000Y-8195000D01*
X13972000Y-8255000D01*
X14032000Y-8315000D01*
X14382000Y-8315000D02*
X14442000Y-8255000D01*
X14382000Y-8195000D01*
X14322000Y-8255000D01*
X14382000Y-8315000D01*
X14732000Y-8315000D02*
X14792000Y-8255000D01*
X14732000Y-8195000D01*
X14672000Y-8255000D01*
X14732000Y-8315000D01*
X15110000Y-8315000D02*
X15170000Y-8255000D01*
X15110000Y-8195000D01*
X15050000Y-8255000D01*
X15110000Y-8315000D01*
X15460000Y-8315000D02*
X15520000Y-8255000D01*
X15460000Y-8195000D01*
X15400000Y-8255000D01*
X15460000Y-8315000D01*
X15810000Y-8315000D02*
X15870000Y-8255000D01*
X15810000Y-8195000D01*
X15750000Y-8255000D01*
X15810000Y-8315000D01*
X16160000Y-8315000D02*
X16220000Y-8255000D01*
X16160000Y-8195000D01*
X16100000Y-8255000D01*
X16160000Y-8315000D01*
X16510000Y-8315000D02*
X16570000Y-8255000D01*
X16510000Y-8195000D01*
X16450000Y-8255000D01*
X16510000Y-8315000D01*
X16888000Y-8315000D02*
X16948000Y-8255000D01*
X16888000Y-8195000D01*
X16828000Y-8255000D01*
X16888000Y-8315000D01*
X17238000Y-8315000D02*
X17298000Y-8255000D01*
X17238000Y-8195000D01*
X17178000Y-8255000D01*
X17238000Y-8315000D01*
X17588000Y-8315000D02*
X17648000Y-8255000D01*
X17588000Y-8195000D01*
X17528000Y-8255000D01*
X17588000Y-8315000D01*
X17938000Y-8315000D02*
X17998000Y-8255000D01*
X17938000Y-8195000D01*
X17878000Y-8255000D01*
X17938000Y-8315000D01*
X18288000Y-8315000D02*
X18348000Y-8255000D01*
X18288000Y-8195000D01*
X18228000Y-8255000D01*
X18288000Y-8315000D01*
D12*
X10621530Y-12914214D02*
X10621530Y-12614214D01*
X10692959Y-12614214D01*
X10735816Y-12628500D01*
X10764387Y-12657071D01*
X10778673Y-12685643D01*
X10792959Y-12742786D01*
X10792959Y-12785643D01*
X10778673Y-12842786D01*
X10764387Y-12871357D01*
X10735816Y-12899929D01*
X10692959Y-12914214D01*
X10621530Y-12914214D01*
X10921530Y-12914214D02*
X10921530Y-12714214D01*
X10921530Y-12771357D02*
X10935816Y-12742786D01*
X10950102Y-12728500D01*
X10978673Y-12714214D01*
X11007244Y-12714214D01*
X11107244Y-12914214D02*
X11107244Y-12714214D01*
X11107244Y-12614214D02*
X11092959Y-12628500D01*
X11107244Y-12642786D01*
X11121530Y-12628500D01*
X11107244Y-12614214D01*
X11107244Y-12642786D01*
X11292959Y-12914214D02*
X11264387Y-12899929D01*
X11250101Y-12871357D01*
X11250101Y-12614214D01*
X11450101Y-12914214D02*
X11421530Y-12899929D01*
X11407244Y-12871357D01*
X11407244Y-12614214D01*
X11792959Y-12914214D02*
X11792959Y-12614214D01*
X11892959Y-12828500D01*
X11992959Y-12614214D01*
X11992959Y-12914214D01*
X12264387Y-12914214D02*
X12264387Y-12757071D01*
X12250101Y-12728500D01*
X12221530Y-12714214D01*
X12164387Y-12714214D01*
X12135816Y-12728500D01*
X12264387Y-12899929D02*
X12235816Y-12914214D01*
X12164387Y-12914214D01*
X12135816Y-12899929D01*
X12121530Y-12871357D01*
X12121530Y-12842786D01*
X12135816Y-12814214D01*
X12164387Y-12799929D01*
X12235816Y-12799929D01*
X12264387Y-12785643D01*
X12407244Y-12714214D02*
X12407244Y-13014214D01*
X12407244Y-12728500D02*
X12435816Y-12714214D01*
X12492959Y-12714214D01*
X12521530Y-12728500D01*
X12535816Y-12742786D01*
X12550101Y-12771357D01*
X12550101Y-12857071D01*
X12535816Y-12885643D01*
X12521530Y-12899929D01*
X12492959Y-12914214D01*
X12435816Y-12914214D01*
X12407244Y-12899929D01*
X12678673Y-12885643D02*
X12692959Y-12899929D01*
X12678673Y-12914214D01*
X12664387Y-12899929D01*
X12678673Y-12885643D01*
X12678673Y-12914214D01*
X12678673Y-12728500D02*
X12692959Y-12742786D01*
X12678673Y-12757071D01*
X12664387Y-12742786D01*
X12678673Y-12728500D01*
X12678673Y-12757071D01*
X10295102Y-13388500D02*
X10335102Y-13428500D01*
X10335102Y-13388500D02*
X10295102Y-13428500D01*
X10678673Y-13244214D02*
X10707244Y-13244214D01*
X10735816Y-13258500D01*
X10750102Y-13272786D01*
X10764387Y-13301357D01*
X10778673Y-13358500D01*
X10778673Y-13429929D01*
X10764387Y-13487071D01*
X10750102Y-13515643D01*
X10735816Y-13529929D01*
X10707244Y-13544214D01*
X10678673Y-13544214D01*
X10650102Y-13529929D01*
X10635816Y-13515643D01*
X10621530Y-13487071D01*
X10607244Y-13429929D01*
X10607244Y-13358500D01*
X10621530Y-13301357D01*
X10635816Y-13272786D01*
X10650102Y-13258500D01*
X10678673Y-13244214D01*
X10907244Y-13515643D02*
X10921530Y-13529929D01*
X10907244Y-13544214D01*
X10892959Y-13529929D01*
X10907244Y-13515643D01*
X10907244Y-13544214D01*
X11178673Y-13344214D02*
X11178673Y-13544214D01*
X11107244Y-13229929D02*
X11035816Y-13444214D01*
X11221530Y-13444214D01*
X11392959Y-13244214D02*
X11421530Y-13244214D01*
X11450101Y-13258500D01*
X11464387Y-13272786D01*
X11478673Y-13301357D01*
X11492959Y-13358500D01*
X11492959Y-13429929D01*
X11478673Y-13487071D01*
X11464387Y-13515643D01*
X11450101Y-13529929D01*
X11421530Y-13544214D01*
X11392959Y-13544214D01*
X11364387Y-13529929D01*
X11350101Y-13515643D01*
X11335816Y-13487071D01*
X11321530Y-13429929D01*
X11321530Y-13358500D01*
X11335816Y-13301357D01*
X11350101Y-13272786D01*
X11364387Y-13258500D01*
X11392959Y-13244214D01*
X11678673Y-13244214D02*
X11707244Y-13244214D01*
X11735816Y-13258500D01*
X11750101Y-13272786D01*
X11764387Y-13301357D01*
X11778673Y-13358500D01*
X11778673Y-13429929D01*
X11764387Y-13487071D01*
X11750101Y-13515643D01*
X11735816Y-13529929D01*
X11707244Y-13544214D01*
X11678673Y-13544214D01*
X11650101Y-13529929D01*
X11635816Y-13515643D01*
X11621530Y-13487071D01*
X11607244Y-13429929D01*
X11607244Y-13358500D01*
X11621530Y-13301357D01*
X11635816Y-13272786D01*
X11650101Y-13258500D01*
X11678673Y-13244214D01*
X11907244Y-13544214D02*
X11907244Y-13344214D01*
X11907244Y-13372786D02*
X11921530Y-13358500D01*
X11950101Y-13344214D01*
X11992959Y-13344214D01*
X12021530Y-13358500D01*
X12035816Y-13387071D01*
X12035816Y-13544214D01*
X12035816Y-13387071D02*
X12050101Y-13358500D01*
X12078673Y-13344214D01*
X12121530Y-13344214D01*
X12150101Y-13358500D01*
X12164387Y-13387071D01*
X12164387Y-13544214D01*
X12307244Y-13544214D02*
X12307244Y-13344214D01*
X12307244Y-13372786D02*
X12321530Y-13358500D01*
X12350101Y-13344214D01*
X12392959Y-13344214D01*
X12421530Y-13358500D01*
X12435816Y-13387071D01*
X12435816Y-13544214D01*
X12435816Y-13387071D02*
X12450101Y-13358500D01*
X12478673Y-13344214D01*
X12521530Y-13344214D01*
X12550101Y-13358500D01*
X12564387Y-13387071D01*
X12564387Y-13544214D01*
X13150101Y-13229929D02*
X12892959Y-13615643D01*
X13535816Y-13244214D02*
X13564387Y-13244214D01*
X13592959Y-13258500D01*
X13607244Y-13272786D01*
X13621530Y-13301357D01*
X13635816Y-13358500D01*
X13635816Y-13429929D01*
X13621530Y-13487071D01*
X13607244Y-13515643D01*
X13592959Y-13529929D01*
X13564387Y-13544214D01*
X13535816Y-13544214D01*
X13507244Y-13529929D01*
X13492959Y-13515643D01*
X13478673Y-13487071D01*
X13464387Y-13429929D01*
X13464387Y-13358500D01*
X13478673Y-13301357D01*
X13492959Y-13272786D01*
X13507244Y-13258500D01*
X13535816Y-13244214D01*
X13764387Y-13515643D02*
X13778673Y-13529929D01*
X13764387Y-13544214D01*
X13750101Y-13529929D01*
X13764387Y-13515643D01*
X13764387Y-13544214D01*
X13964387Y-13244214D02*
X13992959Y-13244214D01*
X14021530Y-13258500D01*
X14035816Y-13272786D01*
X14050101Y-13301357D01*
X14064387Y-13358500D01*
X14064387Y-13429929D01*
X14050101Y-13487071D01*
X14035816Y-13515643D01*
X14021530Y-13529929D01*
X13992959Y-13544214D01*
X13964387Y-13544214D01*
X13935816Y-13529929D01*
X13921530Y-13515643D01*
X13907244Y-13487071D01*
X13892959Y-13429929D01*
X13892959Y-13358500D01*
X13907244Y-13301357D01*
X13921530Y-13272786D01*
X13935816Y-13258500D01*
X13964387Y-13244214D01*
X14350101Y-13544214D02*
X14178673Y-13544214D01*
X14264387Y-13544214D02*
X14264387Y-13244214D01*
X14235816Y-13287071D01*
X14207244Y-13315643D01*
X14178673Y-13329929D01*
X14621530Y-13244214D02*
X14478673Y-13244214D01*
X14464387Y-13387071D01*
X14478673Y-13372786D01*
X14507244Y-13358500D01*
X14578673Y-13358500D01*
X14607244Y-13372786D01*
X14621530Y-13387071D01*
X14635816Y-13415643D01*
X14635816Y-13487071D01*
X14621530Y-13515643D01*
X14607244Y-13529929D01*
X14578673Y-13544214D01*
X14507244Y-13544214D01*
X14478673Y-13529929D01*
X14464387Y-13515643D01*
X14735816Y-13244214D02*
X14935816Y-13244214D01*
X14807244Y-13544214D01*
X15035816Y-13244214D02*
X15035816Y-13301357D01*
X15150101Y-13244214D02*
X15150101Y-13301357D01*
X15592959Y-13658500D02*
X15578673Y-13644214D01*
X15550101Y-13601357D01*
X15535816Y-13572786D01*
X15521530Y-13529929D01*
X15507244Y-13458500D01*
X15507244Y-13401357D01*
X15521530Y-13329929D01*
X15535816Y-13287071D01*
X15550101Y-13258500D01*
X15578673Y-13215643D01*
X15592959Y-13201357D01*
X15692959Y-13272786D02*
X15707244Y-13258500D01*
X15735816Y-13244214D01*
X15807244Y-13244214D01*
X15835816Y-13258500D01*
X15850101Y-13272786D01*
X15864387Y-13301357D01*
X15864387Y-13329929D01*
X15850101Y-13372786D01*
X15678673Y-13544214D01*
X15864387Y-13544214D01*
X16221530Y-13544214D02*
X16221530Y-13244214D01*
X16350101Y-13544214D02*
X16350101Y-13387071D01*
X16335816Y-13358500D01*
X16307244Y-13344214D01*
X16264387Y-13344214D01*
X16235816Y-13358500D01*
X16221530Y-13372786D01*
X16535816Y-13544214D02*
X16507244Y-13529929D01*
X16492959Y-13515643D01*
X16478673Y-13487071D01*
X16478673Y-13401357D01*
X16492959Y-13372786D01*
X16507244Y-13358500D01*
X16535816Y-13344214D01*
X16578673Y-13344214D01*
X16607244Y-13358500D01*
X16621530Y-13372786D01*
X16635816Y-13401357D01*
X16635816Y-13487071D01*
X16621530Y-13515643D01*
X16607244Y-13529929D01*
X16578673Y-13544214D01*
X16535816Y-13544214D01*
X16807244Y-13544214D02*
X16778673Y-13529929D01*
X16764387Y-13501357D01*
X16764387Y-13244214D01*
X17035816Y-13529929D02*
X17007244Y-13544214D01*
X16950102Y-13544214D01*
X16921530Y-13529929D01*
X16907244Y-13501357D01*
X16907244Y-13387071D01*
X16921530Y-13358500D01*
X16950102Y-13344214D01*
X17007244Y-13344214D01*
X17035816Y-13358500D01*
X17050102Y-13387071D01*
X17050102Y-13415643D01*
X16907244Y-13444214D01*
X17164387Y-13529929D02*
X17192959Y-13544214D01*
X17250102Y-13544214D01*
X17278673Y-13529929D01*
X17292959Y-13501357D01*
X17292959Y-13487071D01*
X17278673Y-13458500D01*
X17250102Y-13444214D01*
X17207244Y-13444214D01*
X17178673Y-13429929D01*
X17164387Y-13401357D01*
X17164387Y-13387071D01*
X17178673Y-13358500D01*
X17207244Y-13344214D01*
X17250102Y-13344214D01*
X17278673Y-13358500D01*
X17392959Y-13658500D02*
X17407244Y-13644214D01*
X17435816Y-13601357D01*
X17450102Y-13572786D01*
X17464387Y-13529929D01*
X17478673Y-13458500D01*
X17478673Y-13401357D01*
X17464387Y-13329929D01*
X17450102Y-13287071D01*
X17435816Y-13258500D01*
X17407244Y-13215643D01*
X17392959Y-13201357D01*
X10335102Y-13804500D02*
G75*
G03*
X10335102Y-13804500I-37500J0D01*
G01*
X10678673Y-13640214D02*
X10707244Y-13640214D01*
X10735816Y-13654500D01*
X10750102Y-13668786D01*
X10764387Y-13697357D01*
X10778673Y-13754500D01*
X10778673Y-13825929D01*
X10764387Y-13883071D01*
X10750102Y-13911643D01*
X10735816Y-13925929D01*
X10707244Y-13940214D01*
X10678673Y-13940214D01*
X10650102Y-13925929D01*
X10635816Y-13911643D01*
X10621530Y-13883071D01*
X10607244Y-13825929D01*
X10607244Y-13754500D01*
X10621530Y-13697357D01*
X10635816Y-13668786D01*
X10650102Y-13654500D01*
X10678673Y-13640214D01*
X10907244Y-13911643D02*
X10921530Y-13925929D01*
X10907244Y-13940214D01*
X10892959Y-13925929D01*
X10907244Y-13911643D01*
X10907244Y-13940214D01*
X11021530Y-13640214D02*
X11221530Y-13640214D01*
X11092959Y-13940214D01*
X11478673Y-13640214D02*
X11335816Y-13640214D01*
X11321530Y-13783071D01*
X11335816Y-13768786D01*
X11364387Y-13754500D01*
X11435816Y-13754500D01*
X11464387Y-13768786D01*
X11478673Y-13783071D01*
X11492959Y-13811643D01*
X11492959Y-13883071D01*
X11478673Y-13911643D01*
X11464387Y-13925929D01*
X11435816Y-13940214D01*
X11364387Y-13940214D01*
X11335816Y-13925929D01*
X11321530Y-13911643D01*
X11678673Y-13640214D02*
X11707244Y-13640214D01*
X11735816Y-13654500D01*
X11750101Y-13668786D01*
X11764387Y-13697357D01*
X11778673Y-13754500D01*
X11778673Y-13825929D01*
X11764387Y-13883071D01*
X11750101Y-13911643D01*
X11735816Y-13925929D01*
X11707244Y-13940214D01*
X11678673Y-13940214D01*
X11650101Y-13925929D01*
X11635816Y-13911643D01*
X11621530Y-13883071D01*
X11607244Y-13825929D01*
X11607244Y-13754500D01*
X11621530Y-13697357D01*
X11635816Y-13668786D01*
X11650101Y-13654500D01*
X11678673Y-13640214D01*
X11907244Y-13940214D02*
X11907244Y-13740214D01*
X11907244Y-13768786D02*
X11921530Y-13754500D01*
X11950101Y-13740214D01*
X11992959Y-13740214D01*
X12021530Y-13754500D01*
X12035816Y-13783071D01*
X12035816Y-13940214D01*
X12035816Y-13783071D02*
X12050101Y-13754500D01*
X12078673Y-13740214D01*
X12121530Y-13740214D01*
X12150101Y-13754500D01*
X12164387Y-13783071D01*
X12164387Y-13940214D01*
X12307244Y-13940214D02*
X12307244Y-13740214D01*
X12307244Y-13768786D02*
X12321530Y-13754500D01*
X12350101Y-13740214D01*
X12392959Y-13740214D01*
X12421530Y-13754500D01*
X12435816Y-13783071D01*
X12435816Y-13940214D01*
X12435816Y-13783071D02*
X12450101Y-13754500D01*
X12478673Y-13740214D01*
X12521530Y-13740214D01*
X12550101Y-13754500D01*
X12564387Y-13783071D01*
X12564387Y-13940214D01*
X13150101Y-13625929D02*
X12892959Y-14011643D01*
X13535816Y-13640214D02*
X13564387Y-13640214D01*
X13592959Y-13654500D01*
X13607244Y-13668786D01*
X13621530Y-13697357D01*
X13635816Y-13754500D01*
X13635816Y-13825929D01*
X13621530Y-13883071D01*
X13607244Y-13911643D01*
X13592959Y-13925929D01*
X13564387Y-13940214D01*
X13535816Y-13940214D01*
X13507244Y-13925929D01*
X13492959Y-13911643D01*
X13478673Y-13883071D01*
X13464387Y-13825929D01*
X13464387Y-13754500D01*
X13478673Y-13697357D01*
X13492959Y-13668786D01*
X13507244Y-13654500D01*
X13535816Y-13640214D01*
X13764387Y-13911643D02*
X13778673Y-13925929D01*
X13764387Y-13940214D01*
X13750101Y-13925929D01*
X13764387Y-13911643D01*
X13764387Y-13940214D01*
X13964387Y-13640214D02*
X13992959Y-13640214D01*
X14021530Y-13654500D01*
X14035816Y-13668786D01*
X14050101Y-13697357D01*
X14064387Y-13754500D01*
X14064387Y-13825929D01*
X14050101Y-13883071D01*
X14035816Y-13911643D01*
X14021530Y-13925929D01*
X13992959Y-13940214D01*
X13964387Y-13940214D01*
X13935816Y-13925929D01*
X13921530Y-13911643D01*
X13907244Y-13883071D01*
X13892959Y-13825929D01*
X13892959Y-13754500D01*
X13907244Y-13697357D01*
X13921530Y-13668786D01*
X13935816Y-13654500D01*
X13964387Y-13640214D01*
X14178673Y-13668786D02*
X14192959Y-13654500D01*
X14221530Y-13640214D01*
X14292959Y-13640214D01*
X14321530Y-13654500D01*
X14335816Y-13668786D01*
X14350101Y-13697357D01*
X14350101Y-13725929D01*
X14335816Y-13768786D01*
X14164387Y-13940214D01*
X14350101Y-13940214D01*
X14492959Y-13940214D02*
X14550101Y-13940214D01*
X14578673Y-13925929D01*
X14592959Y-13911643D01*
X14621530Y-13868786D01*
X14635816Y-13811643D01*
X14635816Y-13697357D01*
X14621530Y-13668786D01*
X14607244Y-13654500D01*
X14578673Y-13640214D01*
X14521530Y-13640214D01*
X14492959Y-13654500D01*
X14478673Y-13668786D01*
X14464387Y-13697357D01*
X14464387Y-13768786D01*
X14478673Y-13797357D01*
X14492959Y-13811643D01*
X14521530Y-13825929D01*
X14578673Y-13825929D01*
X14607244Y-13811643D01*
X14621530Y-13797357D01*
X14635816Y-13768786D01*
X14907244Y-13640214D02*
X14764387Y-13640214D01*
X14750101Y-13783071D01*
X14764387Y-13768786D01*
X14792959Y-13754500D01*
X14864387Y-13754500D01*
X14892959Y-13768786D01*
X14907244Y-13783071D01*
X14921530Y-13811643D01*
X14921530Y-13883071D01*
X14907244Y-13911643D01*
X14892959Y-13925929D01*
X14864387Y-13940214D01*
X14792959Y-13940214D01*
X14764387Y-13925929D01*
X14750101Y-13911643D01*
X15035816Y-13640214D02*
X15035816Y-13697357D01*
X15150101Y-13640214D02*
X15150101Y-13697357D01*
X15592959Y-14054500D02*
X15578673Y-14040214D01*
X15550101Y-13997357D01*
X15535816Y-13968786D01*
X15521530Y-13925929D01*
X15507244Y-13854500D01*
X15507244Y-13797357D01*
X15521530Y-13725929D01*
X15535816Y-13683071D01*
X15550101Y-13654500D01*
X15578673Y-13611643D01*
X15592959Y-13597357D01*
X15692959Y-13668786D02*
X15707244Y-13654500D01*
X15735816Y-13640214D01*
X15807244Y-13640214D01*
X15835816Y-13654500D01*
X15850101Y-13668786D01*
X15864387Y-13697357D01*
X15864387Y-13725929D01*
X15850101Y-13768786D01*
X15678673Y-13940214D01*
X15864387Y-13940214D01*
X16150101Y-13940214D02*
X15978673Y-13940214D01*
X16064387Y-13940214D02*
X16064387Y-13640214D01*
X16035816Y-13683071D01*
X16007244Y-13711643D01*
X15978673Y-13725929D01*
X16507244Y-13940214D02*
X16507244Y-13640214D01*
X16635816Y-13940214D02*
X16635816Y-13783071D01*
X16621530Y-13754500D01*
X16592959Y-13740214D01*
X16550101Y-13740214D01*
X16521530Y-13754500D01*
X16507244Y-13768786D01*
X16821530Y-13940214D02*
X16792959Y-13925929D01*
X16778673Y-13911643D01*
X16764387Y-13883071D01*
X16764387Y-13797357D01*
X16778673Y-13768786D01*
X16792959Y-13754500D01*
X16821530Y-13740214D01*
X16864387Y-13740214D01*
X16892959Y-13754500D01*
X16907244Y-13768786D01*
X16921530Y-13797357D01*
X16921530Y-13883071D01*
X16907244Y-13911643D01*
X16892959Y-13925929D01*
X16864387Y-13940214D01*
X16821530Y-13940214D01*
X17092959Y-13940214D02*
X17064387Y-13925929D01*
X17050102Y-13897357D01*
X17050102Y-13640214D01*
X17321530Y-13925929D02*
X17292959Y-13940214D01*
X17235816Y-13940214D01*
X17207244Y-13925929D01*
X17192959Y-13897357D01*
X17192959Y-13783071D01*
X17207244Y-13754500D01*
X17235816Y-13740214D01*
X17292959Y-13740214D01*
X17321530Y-13754500D01*
X17335816Y-13783071D01*
X17335816Y-13811643D01*
X17192959Y-13840214D01*
X17450102Y-13925929D02*
X17478673Y-13940214D01*
X17535816Y-13940214D01*
X17564387Y-13925929D01*
X17578673Y-13897357D01*
X17578673Y-13883071D01*
X17564387Y-13854500D01*
X17535816Y-13840214D01*
X17492959Y-13840214D01*
X17464387Y-13825929D01*
X17450102Y-13797357D01*
X17450102Y-13783071D01*
X17464387Y-13754500D01*
X17492959Y-13740214D01*
X17535816Y-13740214D01*
X17564387Y-13754500D01*
X17678673Y-14054500D02*
X17692959Y-14040214D01*
X17721530Y-13997357D01*
X17735816Y-13968786D01*
X17750102Y-13925929D01*
X17764387Y-13854500D01*
X17764387Y-13797357D01*
X17750102Y-13725929D01*
X17735816Y-13683071D01*
X17721530Y-13654500D01*
X17692959Y-13611643D01*
X17678673Y-13597357D01*
X10285102Y-14150500D02*
X10285102Y-14250500D01*
X10235102Y-14200500D02*
X10335102Y-14200500D01*
X10778673Y-14336214D02*
X10607244Y-14336214D01*
X10692959Y-14336214D02*
X10692959Y-14036214D01*
X10664387Y-14079071D01*
X10635816Y-14107643D01*
X10607244Y-14121929D01*
X10907244Y-14307643D02*
X10921530Y-14321929D01*
X10907244Y-14336214D01*
X10892959Y-14321929D01*
X10907244Y-14307643D01*
X10907244Y-14336214D01*
X11107244Y-14036214D02*
X11135816Y-14036214D01*
X11164387Y-14050500D01*
X11178673Y-14064786D01*
X11192959Y-14093357D01*
X11207244Y-14150500D01*
X11207244Y-14221929D01*
X11192959Y-14279071D01*
X11178673Y-14307643D01*
X11164387Y-14321929D01*
X11135816Y-14336214D01*
X11107244Y-14336214D01*
X11078673Y-14321929D01*
X11064387Y-14307643D01*
X11050102Y-14279071D01*
X11035816Y-14221929D01*
X11035816Y-14150500D01*
X11050102Y-14093357D01*
X11064387Y-14064786D01*
X11078673Y-14050500D01*
X11107244Y-14036214D01*
X11392959Y-14036214D02*
X11421530Y-14036214D01*
X11450101Y-14050500D01*
X11464387Y-14064786D01*
X11478673Y-14093357D01*
X11492959Y-14150500D01*
X11492959Y-14221929D01*
X11478673Y-14279071D01*
X11464387Y-14307643D01*
X11450101Y-14321929D01*
X11421530Y-14336214D01*
X11392959Y-14336214D01*
X11364387Y-14321929D01*
X11350101Y-14307643D01*
X11335816Y-14279071D01*
X11321530Y-14221929D01*
X11321530Y-14150500D01*
X11335816Y-14093357D01*
X11350101Y-14064786D01*
X11364387Y-14050500D01*
X11392959Y-14036214D01*
X11678673Y-14036214D02*
X11707244Y-14036214D01*
X11735816Y-14050500D01*
X11750101Y-14064786D01*
X11764387Y-14093357D01*
X11778673Y-14150500D01*
X11778673Y-14221929D01*
X11764387Y-14279071D01*
X11750101Y-14307643D01*
X11735816Y-14321929D01*
X11707244Y-14336214D01*
X11678673Y-14336214D01*
X11650101Y-14321929D01*
X11635816Y-14307643D01*
X11621530Y-14279071D01*
X11607244Y-14221929D01*
X11607244Y-14150500D01*
X11621530Y-14093357D01*
X11635816Y-14064786D01*
X11650101Y-14050500D01*
X11678673Y-14036214D01*
X11907244Y-14336214D02*
X11907244Y-14136214D01*
X11907244Y-14164786D02*
X11921530Y-14150500D01*
X11950101Y-14136214D01*
X11992959Y-14136214D01*
X12021530Y-14150500D01*
X12035816Y-14179071D01*
X12035816Y-14336214D01*
X12035816Y-14179071D02*
X12050101Y-14150500D01*
X12078673Y-14136214D01*
X12121530Y-14136214D01*
X12150101Y-14150500D01*
X12164387Y-14179071D01*
X12164387Y-14336214D01*
X12307244Y-14336214D02*
X12307244Y-14136214D01*
X12307244Y-14164786D02*
X12321530Y-14150500D01*
X12350101Y-14136214D01*
X12392959Y-14136214D01*
X12421530Y-14150500D01*
X12435816Y-14179071D01*
X12435816Y-14336214D01*
X12435816Y-14179071D02*
X12450101Y-14150500D01*
X12478673Y-14136214D01*
X12521530Y-14136214D01*
X12550101Y-14150500D01*
X12564387Y-14179071D01*
X12564387Y-14336214D01*
X13150101Y-14021929D02*
X12892959Y-14407643D01*
X13535816Y-14036214D02*
X13564387Y-14036214D01*
X13592959Y-14050500D01*
X13607244Y-14064786D01*
X13621530Y-14093357D01*
X13635816Y-14150500D01*
X13635816Y-14221929D01*
X13621530Y-14279071D01*
X13607244Y-14307643D01*
X13592959Y-14321929D01*
X13564387Y-14336214D01*
X13535816Y-14336214D01*
X13507244Y-14321929D01*
X13492959Y-14307643D01*
X13478673Y-14279071D01*
X13464387Y-14221929D01*
X13464387Y-14150500D01*
X13478673Y-14093357D01*
X13492959Y-14064786D01*
X13507244Y-14050500D01*
X13535816Y-14036214D01*
X13764387Y-14307643D02*
X13778673Y-14321929D01*
X13764387Y-14336214D01*
X13750101Y-14321929D01*
X13764387Y-14307643D01*
X13764387Y-14336214D01*
X13964387Y-14036214D02*
X13992959Y-14036214D01*
X14021530Y-14050500D01*
X14035816Y-14064786D01*
X14050101Y-14093357D01*
X14064387Y-14150500D01*
X14064387Y-14221929D01*
X14050101Y-14279071D01*
X14035816Y-14307643D01*
X14021530Y-14321929D01*
X13992959Y-14336214D01*
X13964387Y-14336214D01*
X13935816Y-14321929D01*
X13921530Y-14307643D01*
X13907244Y-14279071D01*
X13892959Y-14221929D01*
X13892959Y-14150500D01*
X13907244Y-14093357D01*
X13921530Y-14064786D01*
X13935816Y-14050500D01*
X13964387Y-14036214D01*
X14164387Y-14036214D02*
X14350101Y-14036214D01*
X14250101Y-14150500D01*
X14292959Y-14150500D01*
X14321530Y-14164786D01*
X14335816Y-14179071D01*
X14350101Y-14207643D01*
X14350101Y-14279071D01*
X14335816Y-14307643D01*
X14321530Y-14321929D01*
X14292959Y-14336214D01*
X14207244Y-14336214D01*
X14178673Y-14321929D01*
X14164387Y-14307643D01*
X14492959Y-14336214D02*
X14550101Y-14336214D01*
X14578673Y-14321929D01*
X14592959Y-14307643D01*
X14621530Y-14264786D01*
X14635816Y-14207643D01*
X14635816Y-14093357D01*
X14621530Y-14064786D01*
X14607244Y-14050500D01*
X14578673Y-14036214D01*
X14521530Y-14036214D01*
X14492959Y-14050500D01*
X14478673Y-14064786D01*
X14464387Y-14093357D01*
X14464387Y-14164786D01*
X14478673Y-14193357D01*
X14492959Y-14207643D01*
X14521530Y-14221929D01*
X14578673Y-14221929D01*
X14607244Y-14207643D01*
X14621530Y-14193357D01*
X14635816Y-14164786D01*
X14892959Y-14136214D02*
X14892959Y-14336214D01*
X14821530Y-14021929D02*
X14750101Y-14236214D01*
X14935816Y-14236214D01*
X15035816Y-14036214D02*
X15035816Y-14093357D01*
X15150101Y-14036214D02*
X15150101Y-14093357D01*
X15592959Y-14450500D02*
X15578673Y-14436214D01*
X15550101Y-14393357D01*
X15535816Y-14364786D01*
X15521530Y-14321929D01*
X15507244Y-14250500D01*
X15507244Y-14193357D01*
X15521530Y-14121929D01*
X15535816Y-14079071D01*
X15550101Y-14050500D01*
X15578673Y-14007643D01*
X15592959Y-13993357D01*
X15692959Y-14064786D02*
X15707244Y-14050500D01*
X15735816Y-14036214D01*
X15807244Y-14036214D01*
X15835816Y-14050500D01*
X15850101Y-14064786D01*
X15864387Y-14093357D01*
X15864387Y-14121929D01*
X15850101Y-14164786D01*
X15678673Y-14336214D01*
X15864387Y-14336214D01*
X15978673Y-14064786D02*
X15992959Y-14050500D01*
X16021530Y-14036214D01*
X16092959Y-14036214D01*
X16121530Y-14050500D01*
X16135816Y-14064786D01*
X16150101Y-14093357D01*
X16150101Y-14121929D01*
X16135816Y-14164786D01*
X15964387Y-14336214D01*
X16150101Y-14336214D01*
X16507244Y-14336214D02*
X16507244Y-14036214D01*
X16635816Y-14336214D02*
X16635816Y-14179071D01*
X16621530Y-14150500D01*
X16592959Y-14136214D01*
X16550101Y-14136214D01*
X16521530Y-14150500D01*
X16507244Y-14164786D01*
X16821530Y-14336214D02*
X16792959Y-14321929D01*
X16778673Y-14307643D01*
X16764387Y-14279071D01*
X16764387Y-14193357D01*
X16778673Y-14164786D01*
X16792959Y-14150500D01*
X16821530Y-14136214D01*
X16864387Y-14136214D01*
X16892959Y-14150500D01*
X16907244Y-14164786D01*
X16921530Y-14193357D01*
X16921530Y-14279071D01*
X16907244Y-14307643D01*
X16892959Y-14321929D01*
X16864387Y-14336214D01*
X16821530Y-14336214D01*
X17092959Y-14336214D02*
X17064387Y-14321929D01*
X17050102Y-14293357D01*
X17050102Y-14036214D01*
X17321530Y-14321929D02*
X17292959Y-14336214D01*
X17235816Y-14336214D01*
X17207244Y-14321929D01*
X17192959Y-14293357D01*
X17192959Y-14179071D01*
X17207244Y-14150500D01*
X17235816Y-14136214D01*
X17292959Y-14136214D01*
X17321530Y-14150500D01*
X17335816Y-14179071D01*
X17335816Y-14207643D01*
X17192959Y-14236214D01*
X17450102Y-14321929D02*
X17478673Y-14336214D01*
X17535816Y-14336214D01*
X17564387Y-14321929D01*
X17578673Y-14293357D01*
X17578673Y-14279071D01*
X17564387Y-14250500D01*
X17535816Y-14236214D01*
X17492959Y-14236214D01*
X17464387Y-14221929D01*
X17450102Y-14193357D01*
X17450102Y-14179071D01*
X17464387Y-14150500D01*
X17492959Y-14136214D01*
X17535816Y-14136214D01*
X17564387Y-14150500D01*
X17678673Y-14450500D02*
X17692959Y-14436214D01*
X17721530Y-14393357D01*
X17735816Y-14364786D01*
X17750102Y-14321929D01*
X17764387Y-14250500D01*
X17764387Y-14193357D01*
X17750102Y-14121929D01*
X17735816Y-14079071D01*
X17721530Y-14050500D01*
X17692959Y-14007643D01*
X17678673Y-13993357D01*
X10320164Y-14632563D02*
X10320164Y-14560437D01*
X10248039Y-14560437D01*
X10248039Y-14632563D01*
X10320164Y-14632563D01*
X10778673Y-14732214D02*
X10607244Y-14732214D01*
X10692959Y-14732214D02*
X10692959Y-14432214D01*
X10664387Y-14475071D01*
X10635816Y-14503643D01*
X10607244Y-14517929D01*
X10907244Y-14703643D02*
X10921530Y-14717929D01*
X10907244Y-14732214D01*
X10892959Y-14717929D01*
X10907244Y-14703643D01*
X10907244Y-14732214D01*
X11107244Y-14432214D02*
X11135816Y-14432214D01*
X11164387Y-14446500D01*
X11178673Y-14460786D01*
X11192959Y-14489357D01*
X11207244Y-14546500D01*
X11207244Y-14617929D01*
X11192959Y-14675071D01*
X11178673Y-14703643D01*
X11164387Y-14717929D01*
X11135816Y-14732214D01*
X11107244Y-14732214D01*
X11078673Y-14717929D01*
X11064387Y-14703643D01*
X11050102Y-14675071D01*
X11035816Y-14617929D01*
X11035816Y-14546500D01*
X11050102Y-14489357D01*
X11064387Y-14460786D01*
X11078673Y-14446500D01*
X11107244Y-14432214D01*
X11321530Y-14460786D02*
X11335816Y-14446500D01*
X11364387Y-14432214D01*
X11435816Y-14432214D01*
X11464387Y-14446500D01*
X11478673Y-14460786D01*
X11492959Y-14489357D01*
X11492959Y-14517929D01*
X11478673Y-14560786D01*
X11307244Y-14732214D01*
X11492959Y-14732214D01*
X11678673Y-14432214D02*
X11707244Y-14432214D01*
X11735816Y-14446500D01*
X11750101Y-14460786D01*
X11764387Y-14489357D01*
X11778673Y-14546500D01*
X11778673Y-14617929D01*
X11764387Y-14675071D01*
X11750101Y-14703643D01*
X11735816Y-14717929D01*
X11707244Y-14732214D01*
X11678673Y-14732214D01*
X11650101Y-14717929D01*
X11635816Y-14703643D01*
X11621530Y-14675071D01*
X11607244Y-14617929D01*
X11607244Y-14546500D01*
X11621530Y-14489357D01*
X11635816Y-14460786D01*
X11650101Y-14446500D01*
X11678673Y-14432214D01*
X11907244Y-14732214D02*
X11907244Y-14532214D01*
X11907244Y-14560786D02*
X11921530Y-14546500D01*
X11950101Y-14532214D01*
X11992959Y-14532214D01*
X12021530Y-14546500D01*
X12035816Y-14575071D01*
X12035816Y-14732214D01*
X12035816Y-14575071D02*
X12050101Y-14546500D01*
X12078673Y-14532214D01*
X12121530Y-14532214D01*
X12150101Y-14546500D01*
X12164387Y-14575071D01*
X12164387Y-14732214D01*
X12307244Y-14732214D02*
X12307244Y-14532214D01*
X12307244Y-14560786D02*
X12321530Y-14546500D01*
X12350101Y-14532214D01*
X12392959Y-14532214D01*
X12421530Y-14546500D01*
X12435816Y-14575071D01*
X12435816Y-14732214D01*
X12435816Y-14575071D02*
X12450101Y-14546500D01*
X12478673Y-14532214D01*
X12521530Y-14532214D01*
X12550101Y-14546500D01*
X12564387Y-14575071D01*
X12564387Y-14732214D01*
X13150101Y-14417929D02*
X12892959Y-14803643D01*
X13535816Y-14432214D02*
X13564387Y-14432214D01*
X13592959Y-14446500D01*
X13607244Y-14460786D01*
X13621530Y-14489357D01*
X13635816Y-14546500D01*
X13635816Y-14617929D01*
X13621530Y-14675071D01*
X13607244Y-14703643D01*
X13592959Y-14717929D01*
X13564387Y-14732214D01*
X13535816Y-14732214D01*
X13507244Y-14717929D01*
X13492959Y-14703643D01*
X13478673Y-14675071D01*
X13464387Y-14617929D01*
X13464387Y-14546500D01*
X13478673Y-14489357D01*
X13492959Y-14460786D01*
X13507244Y-14446500D01*
X13535816Y-14432214D01*
X13764387Y-14703643D02*
X13778673Y-14717929D01*
X13764387Y-14732214D01*
X13750101Y-14717929D01*
X13764387Y-14703643D01*
X13764387Y-14732214D01*
X13964387Y-14432214D02*
X13992959Y-14432214D01*
X14021530Y-14446500D01*
X14035816Y-14460786D01*
X14050101Y-14489357D01*
X14064387Y-14546500D01*
X14064387Y-14617929D01*
X14050101Y-14675071D01*
X14035816Y-14703643D01*
X14021530Y-14717929D01*
X13992959Y-14732214D01*
X13964387Y-14732214D01*
X13935816Y-14717929D01*
X13921530Y-14703643D01*
X13907244Y-14675071D01*
X13892959Y-14617929D01*
X13892959Y-14546500D01*
X13907244Y-14489357D01*
X13921530Y-14460786D01*
X13935816Y-14446500D01*
X13964387Y-14432214D01*
X14321530Y-14532214D02*
X14321530Y-14732214D01*
X14250101Y-14417929D02*
X14178673Y-14632214D01*
X14364387Y-14632214D01*
X14535816Y-14432214D02*
X14564387Y-14432214D01*
X14592959Y-14446500D01*
X14607244Y-14460786D01*
X14621530Y-14489357D01*
X14635816Y-14546500D01*
X14635816Y-14617929D01*
X14621530Y-14675071D01*
X14607244Y-14703643D01*
X14592959Y-14717929D01*
X14564387Y-14732214D01*
X14535816Y-14732214D01*
X14507244Y-14717929D01*
X14492959Y-14703643D01*
X14478673Y-14675071D01*
X14464387Y-14617929D01*
X14464387Y-14546500D01*
X14478673Y-14489357D01*
X14492959Y-14460786D01*
X14507244Y-14446500D01*
X14535816Y-14432214D01*
X14750101Y-14460786D02*
X14764387Y-14446500D01*
X14792959Y-14432214D01*
X14864387Y-14432214D01*
X14892959Y-14446500D01*
X14907244Y-14460786D01*
X14921530Y-14489357D01*
X14921530Y-14517929D01*
X14907244Y-14560786D01*
X14735816Y-14732214D01*
X14921530Y-14732214D01*
X15035816Y-14432214D02*
X15035816Y-14489357D01*
X15150101Y-14432214D02*
X15150101Y-14489357D01*
X15592959Y-14846500D02*
X15578673Y-14832214D01*
X15550101Y-14789357D01*
X15535816Y-14760786D01*
X15521530Y-14717929D01*
X15507244Y-14646500D01*
X15507244Y-14589357D01*
X15521530Y-14517929D01*
X15535816Y-14475071D01*
X15550101Y-14446500D01*
X15578673Y-14403643D01*
X15592959Y-14389357D01*
X15835816Y-14532214D02*
X15835816Y-14732214D01*
X15764387Y-14417929D02*
X15692959Y-14632214D01*
X15878673Y-14632214D01*
X15964387Y-14432214D02*
X16150101Y-14432214D01*
X16050101Y-14546500D01*
X16092959Y-14546500D01*
X16121530Y-14560786D01*
X16135816Y-14575071D01*
X16150101Y-14603643D01*
X16150101Y-14675071D01*
X16135816Y-14703643D01*
X16121530Y-14717929D01*
X16092959Y-14732214D01*
X16007244Y-14732214D01*
X15978673Y-14717929D01*
X15964387Y-14703643D01*
X16507244Y-14732214D02*
X16507244Y-14432214D01*
X16635816Y-14732214D02*
X16635816Y-14575071D01*
X16621530Y-14546500D01*
X16592959Y-14532214D01*
X16550101Y-14532214D01*
X16521530Y-14546500D01*
X16507244Y-14560786D01*
X16821530Y-14732214D02*
X16792959Y-14717929D01*
X16778673Y-14703643D01*
X16764387Y-14675071D01*
X16764387Y-14589357D01*
X16778673Y-14560786D01*
X16792959Y-14546500D01*
X16821530Y-14532214D01*
X16864387Y-14532214D01*
X16892959Y-14546500D01*
X16907244Y-14560786D01*
X16921530Y-14589357D01*
X16921530Y-14675071D01*
X16907244Y-14703643D01*
X16892959Y-14717929D01*
X16864387Y-14732214D01*
X16821530Y-14732214D01*
X17092959Y-14732214D02*
X17064387Y-14717929D01*
X17050102Y-14689357D01*
X17050102Y-14432214D01*
X17321530Y-14717929D02*
X17292959Y-14732214D01*
X17235816Y-14732214D01*
X17207244Y-14717929D01*
X17192959Y-14689357D01*
X17192959Y-14575071D01*
X17207244Y-14546500D01*
X17235816Y-14532214D01*
X17292959Y-14532214D01*
X17321530Y-14546500D01*
X17335816Y-14575071D01*
X17335816Y-14603643D01*
X17192959Y-14632214D01*
X17450102Y-14717929D02*
X17478673Y-14732214D01*
X17535816Y-14732214D01*
X17564387Y-14717929D01*
X17578673Y-14689357D01*
X17578673Y-14675071D01*
X17564387Y-14646500D01*
X17535816Y-14632214D01*
X17492959Y-14632214D01*
X17464387Y-14617929D01*
X17450102Y-14589357D01*
X17450102Y-14575071D01*
X17464387Y-14546500D01*
X17492959Y-14532214D01*
X17535816Y-14532214D01*
X17564387Y-14546500D01*
X17678673Y-14846500D02*
X17692959Y-14832214D01*
X17721530Y-14789357D01*
X17735816Y-14760786D01*
X17750102Y-14717929D01*
X17764387Y-14646500D01*
X17764387Y-14589357D01*
X17750102Y-14517929D01*
X17735816Y-14475071D01*
X17721530Y-14446500D01*
X17692959Y-14403643D01*
X17678673Y-14389357D01*
X10275102Y-15052500D02*
X10335102Y-14992500D01*
X10275102Y-14932500D01*
X10215102Y-14992500D01*
X10275102Y-15052500D01*
X10778673Y-15128214D02*
X10607244Y-15128214D01*
X10692959Y-15128214D02*
X10692959Y-14828214D01*
X10664387Y-14871071D01*
X10635816Y-14899643D01*
X10607244Y-14913929D01*
X10907244Y-15099643D02*
X10921530Y-15113929D01*
X10907244Y-15128214D01*
X10892959Y-15113929D01*
X10907244Y-15099643D01*
X10907244Y-15128214D01*
X11035816Y-14856786D02*
X11050102Y-14842500D01*
X11078673Y-14828214D01*
X11150102Y-14828214D01*
X11178673Y-14842500D01*
X11192959Y-14856786D01*
X11207244Y-14885357D01*
X11207244Y-14913929D01*
X11192959Y-14956786D01*
X11021530Y-15128214D01*
X11207244Y-15128214D01*
X11392959Y-14828214D02*
X11421530Y-14828214D01*
X11450101Y-14842500D01*
X11464387Y-14856786D01*
X11478673Y-14885357D01*
X11492959Y-14942500D01*
X11492959Y-15013929D01*
X11478673Y-15071071D01*
X11464387Y-15099643D01*
X11450101Y-15113929D01*
X11421530Y-15128214D01*
X11392959Y-15128214D01*
X11364387Y-15113929D01*
X11350101Y-15099643D01*
X11335816Y-15071071D01*
X11321530Y-15013929D01*
X11321530Y-14942500D01*
X11335816Y-14885357D01*
X11350101Y-14856786D01*
X11364387Y-14842500D01*
X11392959Y-14828214D01*
X11678673Y-14828214D02*
X11707244Y-14828214D01*
X11735816Y-14842500D01*
X11750101Y-14856786D01*
X11764387Y-14885357D01*
X11778673Y-14942500D01*
X11778673Y-15013929D01*
X11764387Y-15071071D01*
X11750101Y-15099643D01*
X11735816Y-15113929D01*
X11707244Y-15128214D01*
X11678673Y-15128214D01*
X11650101Y-15113929D01*
X11635816Y-15099643D01*
X11621530Y-15071071D01*
X11607244Y-15013929D01*
X11607244Y-14942500D01*
X11621530Y-14885357D01*
X11635816Y-14856786D01*
X11650101Y-14842500D01*
X11678673Y-14828214D01*
X11907244Y-15128214D02*
X11907244Y-14928214D01*
X11907244Y-14956786D02*
X11921530Y-14942500D01*
X11950101Y-14928214D01*
X11992959Y-14928214D01*
X12021530Y-14942500D01*
X12035816Y-14971071D01*
X12035816Y-15128214D01*
X12035816Y-14971071D02*
X12050101Y-14942500D01*
X12078673Y-14928214D01*
X12121530Y-14928214D01*
X12150101Y-14942500D01*
X12164387Y-14971071D01*
X12164387Y-15128214D01*
X12307244Y-15128214D02*
X12307244Y-14928214D01*
X12307244Y-14956786D02*
X12321530Y-14942500D01*
X12350101Y-14928214D01*
X12392959Y-14928214D01*
X12421530Y-14942500D01*
X12435816Y-14971071D01*
X12435816Y-15128214D01*
X12435816Y-14971071D02*
X12450101Y-14942500D01*
X12478673Y-14928214D01*
X12521530Y-14928214D01*
X12550101Y-14942500D01*
X12564387Y-14971071D01*
X12564387Y-15128214D01*
X13150101Y-14813929D02*
X12892959Y-15199643D01*
X13535816Y-14828214D02*
X13564387Y-14828214D01*
X13592959Y-14842500D01*
X13607244Y-14856786D01*
X13621530Y-14885357D01*
X13635816Y-14942500D01*
X13635816Y-15013929D01*
X13621530Y-15071071D01*
X13607244Y-15099643D01*
X13592959Y-15113929D01*
X13564387Y-15128214D01*
X13535816Y-15128214D01*
X13507244Y-15113929D01*
X13492959Y-15099643D01*
X13478673Y-15071071D01*
X13464387Y-15013929D01*
X13464387Y-14942500D01*
X13478673Y-14885357D01*
X13492959Y-14856786D01*
X13507244Y-14842500D01*
X13535816Y-14828214D01*
X13764387Y-15099643D02*
X13778673Y-15113929D01*
X13764387Y-15128214D01*
X13750101Y-15113929D01*
X13764387Y-15099643D01*
X13764387Y-15128214D01*
X13964387Y-14828214D02*
X13992959Y-14828214D01*
X14021530Y-14842500D01*
X14035816Y-14856786D01*
X14050101Y-14885357D01*
X14064387Y-14942500D01*
X14064387Y-15013929D01*
X14050101Y-15071071D01*
X14035816Y-15099643D01*
X14021530Y-15113929D01*
X13992959Y-15128214D01*
X13964387Y-15128214D01*
X13935816Y-15113929D01*
X13921530Y-15099643D01*
X13907244Y-15071071D01*
X13892959Y-15013929D01*
X13892959Y-14942500D01*
X13907244Y-14885357D01*
X13921530Y-14856786D01*
X13935816Y-14842500D01*
X13964387Y-14828214D01*
X14321530Y-14928214D02*
X14321530Y-15128214D01*
X14250101Y-14813929D02*
X14178673Y-15028214D01*
X14364387Y-15028214D01*
X14450101Y-14828214D02*
X14650101Y-14828214D01*
X14521530Y-15128214D01*
X14750101Y-14856786D02*
X14764387Y-14842500D01*
X14792959Y-14828214D01*
X14864387Y-14828214D01*
X14892959Y-14842500D01*
X14907244Y-14856786D01*
X14921530Y-14885357D01*
X14921530Y-14913929D01*
X14907244Y-14956786D01*
X14735816Y-15128214D01*
X14921530Y-15128214D01*
X15035816Y-14828214D02*
X15035816Y-14885357D01*
X15150101Y-14828214D02*
X15150101Y-14885357D01*
X15592959Y-15242500D02*
X15578673Y-15228214D01*
X15550101Y-15185357D01*
X15535816Y-15156786D01*
X15521530Y-15113929D01*
X15507244Y-15042500D01*
X15507244Y-14985357D01*
X15521530Y-14913929D01*
X15535816Y-14871071D01*
X15550101Y-14842500D01*
X15578673Y-14799643D01*
X15592959Y-14785357D01*
X15692959Y-14856786D02*
X15707244Y-14842500D01*
X15735816Y-14828214D01*
X15807244Y-14828214D01*
X15835816Y-14842500D01*
X15850101Y-14856786D01*
X15864387Y-14885357D01*
X15864387Y-14913929D01*
X15850101Y-14956786D01*
X15678673Y-15128214D01*
X15864387Y-15128214D01*
X16050101Y-14828214D02*
X16078673Y-14828214D01*
X16107244Y-14842500D01*
X16121530Y-14856786D01*
X16135816Y-14885357D01*
X16150101Y-14942500D01*
X16150101Y-15013929D01*
X16135816Y-15071071D01*
X16121530Y-15099643D01*
X16107244Y-15113929D01*
X16078673Y-15128214D01*
X16050101Y-15128214D01*
X16021530Y-15113929D01*
X16007244Y-15099643D01*
X15992959Y-15071071D01*
X15978673Y-15013929D01*
X15978673Y-14942500D01*
X15992959Y-14885357D01*
X16007244Y-14856786D01*
X16021530Y-14842500D01*
X16050101Y-14828214D01*
X16507244Y-15128214D02*
X16507244Y-14828214D01*
X16635816Y-15128214D02*
X16635816Y-14971071D01*
X16621530Y-14942500D01*
X16592959Y-14928214D01*
X16550101Y-14928214D01*
X16521530Y-14942500D01*
X16507244Y-14956786D01*
X16821530Y-15128214D02*
X16792959Y-15113929D01*
X16778673Y-15099643D01*
X16764387Y-15071071D01*
X16764387Y-14985357D01*
X16778673Y-14956786D01*
X16792959Y-14942500D01*
X16821530Y-14928214D01*
X16864387Y-14928214D01*
X16892959Y-14942500D01*
X16907244Y-14956786D01*
X16921530Y-14985357D01*
X16921530Y-15071071D01*
X16907244Y-15099643D01*
X16892959Y-15113929D01*
X16864387Y-15128214D01*
X16821530Y-15128214D01*
X17092959Y-15128214D02*
X17064387Y-15113929D01*
X17050102Y-15085357D01*
X17050102Y-14828214D01*
X17321530Y-15113929D02*
X17292959Y-15128214D01*
X17235816Y-15128214D01*
X17207244Y-15113929D01*
X17192959Y-15085357D01*
X17192959Y-14971071D01*
X17207244Y-14942500D01*
X17235816Y-14928214D01*
X17292959Y-14928214D01*
X17321530Y-14942500D01*
X17335816Y-14971071D01*
X17335816Y-14999643D01*
X17192959Y-15028214D01*
X17450102Y-15113929D02*
X17478673Y-15128214D01*
X17535816Y-15128214D01*
X17564387Y-15113929D01*
X17578673Y-15085357D01*
X17578673Y-15071071D01*
X17564387Y-15042500D01*
X17535816Y-15028214D01*
X17492959Y-15028214D01*
X17464387Y-15013929D01*
X17450102Y-14985357D01*
X17450102Y-14971071D01*
X17464387Y-14942500D01*
X17492959Y-14928214D01*
X17535816Y-14928214D01*
X17564387Y-14942500D01*
X17678673Y-15242500D02*
X17692959Y-15228214D01*
X17721530Y-15185357D01*
X17735816Y-15156786D01*
X17750102Y-15113929D01*
X17764387Y-15042500D01*
X17764387Y-14985357D01*
X17750102Y-14913929D01*
X17735816Y-14871071D01*
X17721530Y-14842500D01*
X17692959Y-14799643D01*
X17678673Y-14785357D01*
M02*
