M48
; DRILL file {KiCad (5.1.12)-1} date 12/31/21 11:23:11
; FORMAT={-:-/ absolute / metric / decimal}
; #@! TF.CreationDate,2021-12-31T11:23:11-06:00
; #@! TF.GenerationSoftware,Kicad,Pcbnew,(5.1.12)-1
; #@! TF.FileFunction,Plated,1,2,PTH
FMAT,2
METRIC
T1C0.400
T2C0.750
T3C1.000
T4C1.020
T5C1.200
%
G90
G05
T1
X112.528Y-115.672
X115.519Y-115.672
T2
X108.585Y-90.983
X108.585Y-92.983
X108.585Y-94.983
X108.585Y-96.983
X108.61Y-105.004
X108.61Y-107.004
X108.61Y-109.004
X108.61Y-111.004
X146.304Y-120.142
X148.304Y-120.142
X150.304Y-120.142
X152.304Y-120.142
X154.304Y-120.142
X159.258Y-120.142
X161.258Y-120.142
X163.258Y-120.142
X165.258Y-120.142
X170.212Y-120.142
X172.212Y-120.142
X174.212Y-120.142
X176.212Y-120.142
T3
X114.3Y-119.38
X114.3Y-121.92
X116.84Y-119.38
X116.84Y-121.92
X119.38Y-119.38
X119.38Y-121.92
X121.92Y-119.38
X121.92Y-121.92
X124.46Y-119.38
X124.46Y-121.92
X127.0Y-119.38
X127.0Y-121.92
X129.54Y-119.38
X129.54Y-121.92
X132.08Y-119.38
X132.08Y-121.92
X134.62Y-119.38
X134.62Y-121.92
X137.16Y-119.38
X137.16Y-121.92
X184.277Y-120.142
X186.817Y-120.142
T4
X148.59Y-92.71
X148.59Y-110.49
X148.82Y-99.06
X148.82Y-101.6
X148.82Y-104.14
X151.13Y-92.71
X151.13Y-110.49
X153.67Y-92.71
X153.67Y-110.49
X156.21Y-92.71
X156.21Y-110.49
X158.75Y-92.71
X158.75Y-110.49
X161.29Y-92.71
X161.29Y-110.49
X163.83Y-92.71
X163.83Y-110.49
X166.37Y-92.71
X166.37Y-110.49
X168.91Y-92.71
X168.91Y-110.49
X171.45Y-92.71
X171.45Y-110.49
X173.99Y-92.71
X173.99Y-110.49
X176.53Y-92.71
X176.53Y-110.49
X179.07Y-92.71
X179.07Y-110.49
X181.61Y-92.71
X181.61Y-110.49
X184.15Y-92.71
X184.15Y-110.49
X186.69Y-92.71
X186.69Y-110.49
X189.23Y-92.71
X189.23Y-110.49
X191.77Y-92.71
X191.77Y-110.49
X194.31Y-92.71
X194.31Y-110.49
X196.85Y-92.71
X196.85Y-110.49
T5
X115.54Y-82.55
X119.04Y-82.55
X122.54Y-82.55
X126.04Y-82.55
X129.54Y-82.55
X133.32Y-82.55
X136.82Y-82.55
X140.32Y-82.55
X143.82Y-82.55
X147.32Y-82.55
X151.1Y-82.55
X154.6Y-82.55
X158.1Y-82.55
X161.6Y-82.55
X165.1Y-82.55
X168.88Y-82.55
X172.38Y-82.55
X175.88Y-82.55
X179.38Y-82.55
X182.88Y-82.55
T0
M30
