G04 #@! TF.GenerationSoftware,KiCad,Pcbnew,(5.1.12)-1*
G04 #@! TF.CreationDate,2021-12-31T11:23:08-06:00*
G04 #@! TF.ProjectId,PicoFightingBoard,5069636f-4669-4676-9874-696e67426f61,rev?*
G04 #@! TF.SameCoordinates,Original*
G04 #@! TF.FileFunction,Paste,Top*
G04 #@! TF.FilePolarity,Positive*
%FSLAX46Y46*%
G04 Gerber Fmt 4.6, Leading zero omitted, Abs format (unit mm)*
G04 Created by KiCad (PCBNEW (5.1.12)-1) date 2021-12-31 11:23:08*
%MOMM*%
%LPD*%
G01*
G04 APERTURE LIST*
%ADD10R,1.060000X0.650000*%
%ADD11R,3.000000X0.900000*%
%ADD12R,1.600000X0.400000*%
G04 APERTURE END LIST*
D10*
X120276800Y-91272400D03*
X120276800Y-90322400D03*
X120276800Y-89372400D03*
X118076800Y-89372400D03*
X118076800Y-91272400D03*
G36*
G01*
X138614998Y-113510000D02*
X139515002Y-113510000D01*
G75*
G02*
X139765000Y-113759998I0J-249998D01*
G01*
X139765000Y-114285002D01*
G75*
G02*
X139515002Y-114535000I-249998J0D01*
G01*
X138614998Y-114535000D01*
G75*
G02*
X138365000Y-114285002I0J249998D01*
G01*
X138365000Y-113759998D01*
G75*
G02*
X138614998Y-113510000I249998J0D01*
G01*
G37*
G36*
G01*
X138614998Y-115335000D02*
X139515002Y-115335000D01*
G75*
G02*
X139765000Y-115584998I0J-249998D01*
G01*
X139765000Y-116110002D01*
G75*
G02*
X139515002Y-116360000I-249998J0D01*
G01*
X138614998Y-116360000D01*
G75*
G02*
X138365000Y-116110002I0J249998D01*
G01*
X138365000Y-115584998D01*
G75*
G02*
X138614998Y-115335000I249998J0D01*
G01*
G37*
G36*
G01*
X140646998Y-115335000D02*
X141547002Y-115335000D01*
G75*
G02*
X141797000Y-115584998I0J-249998D01*
G01*
X141797000Y-116110002D01*
G75*
G02*
X141547002Y-116360000I-249998J0D01*
G01*
X140646998Y-116360000D01*
G75*
G02*
X140397000Y-116110002I0J249998D01*
G01*
X140397000Y-115584998D01*
G75*
G02*
X140646998Y-115335000I249998J0D01*
G01*
G37*
G36*
G01*
X140646998Y-113510000D02*
X141547002Y-113510000D01*
G75*
G02*
X141797000Y-113759998I0J-249998D01*
G01*
X141797000Y-114285002D01*
G75*
G02*
X141547002Y-114535000I-249998J0D01*
G01*
X140646998Y-114535000D01*
G75*
G02*
X140397000Y-114285002I0J249998D01*
G01*
X140397000Y-113759998D01*
G75*
G02*
X140646998Y-113510000I249998J0D01*
G01*
G37*
G36*
G01*
X142678998Y-113510000D02*
X143579002Y-113510000D01*
G75*
G02*
X143829000Y-113759998I0J-249998D01*
G01*
X143829000Y-114285002D01*
G75*
G02*
X143579002Y-114535000I-249998J0D01*
G01*
X142678998Y-114535000D01*
G75*
G02*
X142429000Y-114285002I0J249998D01*
G01*
X142429000Y-113759998D01*
G75*
G02*
X142678998Y-113510000I249998J0D01*
G01*
G37*
G36*
G01*
X142678998Y-115335000D02*
X143579002Y-115335000D01*
G75*
G02*
X143829000Y-115584998I0J-249998D01*
G01*
X143829000Y-116110002D01*
G75*
G02*
X143579002Y-116360000I-249998J0D01*
G01*
X142678998Y-116360000D01*
G75*
G02*
X142429000Y-116110002I0J249998D01*
G01*
X142429000Y-115584998D01*
G75*
G02*
X142678998Y-115335000I249998J0D01*
G01*
G37*
G36*
G01*
X144710998Y-115335000D02*
X145611002Y-115335000D01*
G75*
G02*
X145861000Y-115584998I0J-249998D01*
G01*
X145861000Y-116110002D01*
G75*
G02*
X145611002Y-116360000I-249998J0D01*
G01*
X144710998Y-116360000D01*
G75*
G02*
X144461000Y-116110002I0J249998D01*
G01*
X144461000Y-115584998D01*
G75*
G02*
X144710998Y-115335000I249998J0D01*
G01*
G37*
G36*
G01*
X144710998Y-113510000D02*
X145611002Y-113510000D01*
G75*
G02*
X145861000Y-113759998I0J-249998D01*
G01*
X145861000Y-114285002D01*
G75*
G02*
X145611002Y-114535000I-249998J0D01*
G01*
X144710998Y-114535000D01*
G75*
G02*
X144461000Y-114285002I0J249998D01*
G01*
X144461000Y-113759998D01*
G75*
G02*
X144710998Y-113510000I249998J0D01*
G01*
G37*
G36*
G01*
X116944200Y-90583598D02*
X116944200Y-91483602D01*
G75*
G02*
X116694202Y-91733600I-249998J0D01*
G01*
X116169198Y-91733600D01*
G75*
G02*
X115919200Y-91483602I0J249998D01*
G01*
X115919200Y-90583598D01*
G75*
G02*
X116169198Y-90333600I249998J0D01*
G01*
X116694202Y-90333600D01*
G75*
G02*
X116944200Y-90583598I0J-249998D01*
G01*
G37*
G36*
G01*
X115119200Y-90583598D02*
X115119200Y-91483602D01*
G75*
G02*
X114869202Y-91733600I-249998J0D01*
G01*
X114344198Y-91733600D01*
G75*
G02*
X114094200Y-91483602I0J249998D01*
G01*
X114094200Y-90583598D01*
G75*
G02*
X114344198Y-90333600I249998J0D01*
G01*
X114869202Y-90333600D01*
G75*
G02*
X115119200Y-90583598I0J-249998D01*
G01*
G37*
G36*
G01*
X114069200Y-93489800D02*
X114069200Y-92539800D01*
G75*
G02*
X114319200Y-92289800I250000J0D01*
G01*
X114819200Y-92289800D01*
G75*
G02*
X115069200Y-92539800I0J-250000D01*
G01*
X115069200Y-93489800D01*
G75*
G02*
X114819200Y-93739800I-250000J0D01*
G01*
X114319200Y-93739800D01*
G75*
G02*
X114069200Y-93489800I0J250000D01*
G01*
G37*
G36*
G01*
X115969200Y-93489800D02*
X115969200Y-92539800D01*
G75*
G02*
X116219200Y-92289800I250000J0D01*
G01*
X116719200Y-92289800D01*
G75*
G02*
X116969200Y-92539800I0J-250000D01*
G01*
X116969200Y-93489800D01*
G75*
G02*
X116719200Y-93739800I-250000J0D01*
G01*
X116219200Y-93739800D01*
G75*
G02*
X115969200Y-93489800I0J250000D01*
G01*
G37*
G36*
G01*
X112950002Y-114357200D02*
X112049998Y-114357200D01*
G75*
G02*
X111800000Y-114107202I0J249998D01*
G01*
X111800000Y-113582198D01*
G75*
G02*
X112049998Y-113332200I249998J0D01*
G01*
X112950002Y-113332200D01*
G75*
G02*
X113200000Y-113582198I0J-249998D01*
G01*
X113200000Y-114107202D01*
G75*
G02*
X112950002Y-114357200I-249998J0D01*
G01*
G37*
G36*
G01*
X112950002Y-116182200D02*
X112049998Y-116182200D01*
G75*
G02*
X111800000Y-115932202I0J249998D01*
G01*
X111800000Y-115407198D01*
G75*
G02*
X112049998Y-115157200I249998J0D01*
G01*
X112950002Y-115157200D01*
G75*
G02*
X113200000Y-115407198I0J-249998D01*
G01*
X113200000Y-115932202D01*
G75*
G02*
X112950002Y-116182200I-249998J0D01*
G01*
G37*
G36*
G01*
X116020002Y-114357200D02*
X115119998Y-114357200D01*
G75*
G02*
X114870000Y-114107202I0J249998D01*
G01*
X114870000Y-113582198D01*
G75*
G02*
X115119998Y-113332200I249998J0D01*
G01*
X116020002Y-113332200D01*
G75*
G02*
X116270000Y-113582198I0J-249998D01*
G01*
X116270000Y-114107202D01*
G75*
G02*
X116020002Y-114357200I-249998J0D01*
G01*
G37*
G36*
G01*
X116020002Y-116182200D02*
X115119998Y-116182200D01*
G75*
G02*
X114870000Y-115932202I0J249998D01*
G01*
X114870000Y-115407198D01*
G75*
G02*
X115119998Y-115157200I249998J0D01*
G01*
X116020002Y-115157200D01*
G75*
G02*
X116270000Y-115407198I0J-249998D01*
G01*
X116270000Y-115932202D01*
G75*
G02*
X116020002Y-116182200I-249998J0D01*
G01*
G37*
D11*
X117256000Y-105200800D03*
X117256000Y-110800800D03*
D12*
X115408000Y-106493800D03*
X115408000Y-107493800D03*
X115408000Y-108493800D03*
X115408000Y-109493800D03*
X141633500Y-103093000D03*
X141633500Y-102093000D03*
X141633500Y-101093000D03*
X141633500Y-100093000D03*
D11*
X143481500Y-104400000D03*
X143481500Y-98800000D03*
M02*
