G04 #@! TF.GenerationSoftware,KiCad,Pcbnew,(5.1.12)-1*
G04 #@! TF.CreationDate,2021-12-31T11:23:08-06:00*
G04 #@! TF.ProjectId,PicoFightingBoard,5069636f-4669-4676-9874-696e67426f61,rev?*
G04 #@! TF.SameCoordinates,Original*
G04 #@! TF.FileFunction,Soldermask,Bot*
G04 #@! TF.FilePolarity,Negative*
%FSLAX46Y46*%
G04 Gerber Fmt 4.6, Leading zero omitted, Abs format (unit mm)*
G04 Created by KiCad (PCBNEW (5.1.12)-1) date 2021-12-31 11:23:08*
%MOMM*%
%LPD*%
G01*
G04 APERTURE LIST*
%ADD10R,1.700000X1.700000*%
%ADD11O,1.700000X1.700000*%
%ADD12O,1.750000X1.200000*%
%ADD13O,1.200000X1.750000*%
%ADD14C,2.300000*%
%ADD15R,2.300000X2.300000*%
%ADD16C,3.500000*%
G04 APERTURE END LIST*
D10*
X184277000Y-120142000D03*
D11*
X186817000Y-120142000D03*
D10*
X137160000Y-119380000D03*
D11*
X137160000Y-121920000D03*
X134620000Y-119380000D03*
X134620000Y-121920000D03*
X132080000Y-119380000D03*
X132080000Y-121920000D03*
X129540000Y-119380000D03*
X129540000Y-121920000D03*
X127000000Y-119380000D03*
X127000000Y-121920000D03*
X124460000Y-119380000D03*
X124460000Y-121920000D03*
X121920000Y-119380000D03*
X121920000Y-121920000D03*
X119380000Y-119380000D03*
X119380000Y-121920000D03*
X116840000Y-119380000D03*
X116840000Y-121920000D03*
X114300000Y-119380000D03*
X114300000Y-121920000D03*
X148820000Y-104140000D03*
D10*
X148820000Y-101600000D03*
D11*
X148820000Y-99060000D03*
X196850000Y-110490000D03*
X194310000Y-110490000D03*
D10*
X191770000Y-110490000D03*
D11*
X189230000Y-110490000D03*
X186690000Y-110490000D03*
X184150000Y-110490000D03*
X181610000Y-110490000D03*
D10*
X179070000Y-110490000D03*
D11*
X176530000Y-110490000D03*
X173990000Y-110490000D03*
X171450000Y-110490000D03*
X168910000Y-110490000D03*
D10*
X166370000Y-110490000D03*
D11*
X163830000Y-110490000D03*
X161290000Y-110490000D03*
X158750000Y-110490000D03*
X156210000Y-110490000D03*
D10*
X153670000Y-110490000D03*
D11*
X151130000Y-110490000D03*
X148590000Y-110490000D03*
X148590000Y-92710000D03*
X151130000Y-92710000D03*
D10*
X153670000Y-92710000D03*
D11*
X156210000Y-92710000D03*
X158750000Y-92710000D03*
X161290000Y-92710000D03*
X163830000Y-92710000D03*
D10*
X166370000Y-92710000D03*
D11*
X168910000Y-92710000D03*
X171450000Y-92710000D03*
X173990000Y-92710000D03*
X176530000Y-92710000D03*
D10*
X179070000Y-92710000D03*
D11*
X181610000Y-92710000D03*
X184150000Y-92710000D03*
X186690000Y-92710000D03*
X189230000Y-92710000D03*
D10*
X191770000Y-92710000D03*
D11*
X194310000Y-92710000D03*
X196850000Y-92710000D03*
G36*
G01*
X107959999Y-90382800D02*
X109210001Y-90382800D01*
G75*
G02*
X109460000Y-90632799I0J-249999D01*
G01*
X109460000Y-91332801D01*
G75*
G02*
X109210001Y-91582800I-249999J0D01*
G01*
X107959999Y-91582800D01*
G75*
G02*
X107710000Y-91332801I0J249999D01*
G01*
X107710000Y-90632799D01*
G75*
G02*
X107959999Y-90382800I249999J0D01*
G01*
G37*
D12*
X108585000Y-92982800D03*
X108585000Y-94982800D03*
X108585000Y-96982800D03*
G36*
G01*
X145704000Y-120767001D02*
X145704000Y-119516999D01*
G75*
G02*
X145953999Y-119267000I249999J0D01*
G01*
X146654001Y-119267000D01*
G75*
G02*
X146904000Y-119516999I0J-249999D01*
G01*
X146904000Y-120767001D01*
G75*
G02*
X146654001Y-121017000I-249999J0D01*
G01*
X145953999Y-121017000D01*
G75*
G02*
X145704000Y-120767001I0J249999D01*
G01*
G37*
D13*
X148304000Y-120142000D03*
X150304000Y-120142000D03*
X152304000Y-120142000D03*
X154304000Y-120142000D03*
X165258000Y-120142000D03*
X163258000Y-120142000D03*
X161258000Y-120142000D03*
G36*
G01*
X158658000Y-120767001D02*
X158658000Y-119516999D01*
G75*
G02*
X158907999Y-119267000I249999J0D01*
G01*
X159608001Y-119267000D01*
G75*
G02*
X159858000Y-119516999I0J-249999D01*
G01*
X159858000Y-120767001D01*
G75*
G02*
X159608001Y-121017000I-249999J0D01*
G01*
X158907999Y-121017000D01*
G75*
G02*
X158658000Y-120767001I0J249999D01*
G01*
G37*
D14*
X115540000Y-82550000D03*
X119040000Y-82550000D03*
X122540000Y-82550000D03*
X126040000Y-82550000D03*
X129540000Y-82550000D03*
X147320000Y-82550000D03*
X143820000Y-82550000D03*
X140320000Y-82550000D03*
X136820000Y-82550000D03*
X133320000Y-82550000D03*
X151100000Y-82550000D03*
X154600000Y-82550000D03*
X158100000Y-82550000D03*
X161600000Y-82550000D03*
X165100000Y-82550000D03*
D15*
X182880000Y-82550000D03*
D14*
X179380000Y-82550000D03*
X175880000Y-82550000D03*
X172380000Y-82550000D03*
X168880000Y-82550000D03*
G36*
G01*
X169612000Y-120767001D02*
X169612000Y-119516999D01*
G75*
G02*
X169861999Y-119267000I249999J0D01*
G01*
X170562001Y-119267000D01*
G75*
G02*
X170812000Y-119516999I0J-249999D01*
G01*
X170812000Y-120767001D01*
G75*
G02*
X170562001Y-121017000I-249999J0D01*
G01*
X169861999Y-121017000D01*
G75*
G02*
X169612000Y-120767001I0J249999D01*
G01*
G37*
D13*
X172212000Y-120142000D03*
X174212000Y-120142000D03*
X176212000Y-120142000D03*
D12*
X108610400Y-111003600D03*
X108610400Y-109003600D03*
X108610400Y-107003600D03*
G36*
G01*
X107985399Y-104403600D02*
X109235401Y-104403600D01*
G75*
G02*
X109485400Y-104653599I0J-249999D01*
G01*
X109485400Y-105353601D01*
G75*
G02*
X109235401Y-105603600I-249999J0D01*
G01*
X107985399Y-105603600D01*
G75*
G02*
X107735400Y-105353601I0J249999D01*
G01*
X107735400Y-104653599D01*
G75*
G02*
X107985399Y-104403600I249999J0D01*
G01*
G37*
D16*
X107400000Y-83200000D03*
X195500000Y-83200000D03*
X107400000Y-120500000D03*
X195500000Y-120500000D03*
M02*
